<svg width="12" height="11" viewBox="0 0 12 11" fill="none" xmlns="http://www.w3.org/2000/svg">
<path d="M0.770926 6.09399L5.35048 10.2624C5.43759 10.3383 5.54031 10.3978 5.65273 10.4375C5.87572 10.5208 6.12584 10.5208 6.34883 10.4375C6.46126 10.3978 6.56397 10.3383 6.65108 10.2624L11.2306 6.09399C11.316 6.01626 11.3838 5.92398 11.43 5.82242C11.4762 5.72086 11.5 5.61201 11.5 5.50208C11.5 5.28007 11.4031 5.06715 11.2306 4.91017C11.0582 4.75318 10.8242 4.66499 10.5803 4.66499C10.3364 4.66499 10.1025 4.75318 9.93004 4.91017L6.91669 7.66131L6.91669 1.33368C6.91669 1.11257 6.8202 0.900524 6.64843 0.744178C6.47666 0.587833 6.2437 0.5 6.00078 0.5C5.75787 0.5 5.5249 0.587833 5.35313 0.744178C5.18137 0.900524 5.08487 1.11257 5.08487 1.33368L5.08487 7.66131L2.07152 4.91017C1.98637 4.83203 1.88507 4.77001 1.77346 4.72768C1.66185 4.68536 1.54213 4.66356 1.42122 4.66356C1.30031 4.66356 1.1806 4.68536 1.06898 4.72768C0.957372 4.77001 0.856072 4.83203 0.770926 4.91017C0.685079 4.98767 0.616939 5.07987 0.570439 5.18146C0.523939 5.28306 0.5 5.39202 0.5 5.50208C0.5 5.61213 0.523939 5.7211 0.570439 5.82269C0.616939 5.92428 0.685079 6.01649 0.770926 6.09399Z" fill="#8052F5"/>
</svg>
