<svg width="11" height="12" viewBox="0 0 11 12" fill="none" xmlns="http://www.w3.org/2000/svg">
<path d="M6.09399 10.8553L10.2624 6.27574C10.3383 6.18863 10.3978 6.08592 10.4375 5.97349C10.5208 5.7505 10.5208 5.50038 10.4375 5.27739C10.3978 5.16496 10.3383 5.06225 10.2624 4.97514L6.09399 0.395583C6.01626 0.310185 5.92398 0.242443 5.82242 0.196226C5.72086 0.150009 5.61201 0.126221 5.50208 0.126221C5.28007 0.126221 5.06715 0.223113 4.91017 0.395583C4.75318 0.568052 4.66499 0.801971 4.66499 1.04588C4.66499 1.28979 4.75318 1.52371 4.91017 1.69618L7.66131 4.70953L1.33368 4.70953C1.11257 4.70953 0.900523 4.80603 0.744179 4.97779C0.587833 5.14956 0.5 5.38252 0.5 5.62544C0.5 5.86835 0.587833 6.10132 0.744179 6.27309C0.900523 6.44485 1.11257 6.54135 1.33368 6.54135L7.66131 6.54135L4.91017 9.5547C4.83203 9.63985 4.77001 9.74115 4.72768 9.85276C4.68536 9.96437 4.66356 10.0841 4.66356 10.205C4.66356 10.3259 4.68536 10.4456 4.72768 10.5572C4.77001 10.6688 4.83203 10.7701 4.91017 10.8553C4.98767 10.9411 5.07987 11.0093 5.18146 11.0558C5.28306 11.1023 5.39202 11.1262 5.50208 11.1262C5.61213 11.1262 5.7211 11.1023 5.82269 11.0558C5.92428 11.0093 6.01649 10.9411 6.09399 10.8553Z" fill="#8052F5"/>
</svg>
