<svg width="258" height="68" viewBox="0 0 258 68" fill="none" xmlns="http://www.w3.org/2000/svg">
<path d="M22.608 67H0.436079V4.45454H22.7912C29.0824 4.45454 34.4981 5.70667 39.0384 8.21094C43.5786 10.6948 47.0703 14.268 49.5135 18.9304C51.977 23.5928 53.2088 29.1714 53.2088 35.6662C53.2088 42.1813 51.977 47.7803 49.5135 52.4631C47.0703 57.1458 43.5582 60.7393 38.9773 63.2436C34.4167 65.7479 28.9602 67 22.608 67ZM13.6598 55.6697H22.0582C25.9673 55.6697 29.2554 54.9775 31.9226 53.593C34.6101 52.1882 36.6257 50.0199 37.9695 47.0881C39.3336 44.1359 40.0156 40.3286 40.0156 35.6662C40.0156 31.0445 39.3336 27.2678 37.9695 24.3359C36.6257 21.4041 34.6203 19.246 31.9531 17.8615C29.286 16.477 25.9979 15.7848 22.0888 15.7848H13.6598V55.6697ZM76.1365 67.8857C73.1436 67.8857 70.4765 67.3665 68.1351 66.3281C65.7937 65.2694 63.941 63.7119 62.5769 61.6555C61.2331 59.5788 60.5613 56.9931 60.5613 53.8984C60.5613 51.2924 61.0397 49.1037 61.9966 47.3324C62.9535 45.5611 64.2566 44.1359 65.9057 43.0568C67.5549 41.9777 69.428 41.1634 71.525 40.6136C73.6425 40.0639 75.8617 39.6771 78.1827 39.4531C80.9109 39.1681 83.1098 38.9034 84.7793 38.6591C86.4488 38.3944 87.6602 38.0076 88.4135 37.4986C89.1668 36.9896 89.5435 36.2363 89.5435 35.2386V35.0554C89.5435 33.1212 88.9327 31.6248 87.7111 30.566C86.5099 29.5073 84.7997 28.978 82.5804 28.978C80.2391 28.978 78.3761 29.4972 76.9917 30.5355C75.6072 31.5535 74.691 32.8362 74.2431 34.3835L62.2104 33.4062C62.8212 30.5559 64.0224 28.0923 65.8141 26.0156C67.6058 23.9186 69.9166 22.3101 72.7466 21.1903C75.597 20.0502 78.8953 19.4801 82.6415 19.4801C85.2476 19.4801 87.7417 19.7855 90.1238 20.3963C92.5262 21.0071 94.6538 21.9538 96.5066 23.2365C98.3797 24.5192 99.8558 26.1683 100.935 28.1839C102.014 30.1792 102.553 32.5715 102.553 35.3608V67H90.2154V60.495H89.8489C89.0956 61.9609 88.0878 63.2538 86.8255 64.3736C85.5632 65.473 84.0463 66.3383 82.275 66.9695C80.5037 67.5803 78.4576 67.8857 76.1365 67.8857ZM79.8624 58.907C81.7762 58.907 83.4661 58.5303 84.932 57.777C86.3979 57.0033 87.5482 55.965 88.383 54.6619C89.2177 53.3589 89.6351 51.8828 89.6351 50.2337V45.2557C89.2279 45.5204 88.668 45.7647 87.9554 45.9886C87.2632 46.1922 86.4793 46.3857 85.6039 46.5689C84.7284 46.7318 83.8529 46.8845 82.9775 47.027C82.102 47.1491 81.3079 47.2611 80.5953 47.3629C79.0684 47.5869 77.7348 47.9432 76.5946 48.4318C75.4545 48.9205 74.5688 49.5821 73.9377 50.4169C73.3065 51.2313 72.9909 52.2493 72.9909 53.4709C72.9909 55.2422 73.6323 56.5961 74.915 57.5327C76.218 58.4489 77.8671 58.907 79.8624 58.907ZM125.657 39.8807V67H112.647V20.0909H125.046V28.3672H125.596C126.634 25.639 128.375 23.4808 130.818 21.8928C133.261 20.2843 136.224 19.4801 139.705 19.4801C142.963 19.4801 145.803 20.1927 148.226 21.6179C150.648 23.0431 152.532 25.0791 153.876 27.7259C155.219 30.3523 155.891 33.4877 155.891 37.1321V67H142.881V39.4531C142.902 36.5824 142.169 34.3428 140.682 32.7344C139.196 31.1056 137.15 30.2912 134.544 30.2912C132.793 30.2912 131.246 30.6678 129.902 31.4212C128.578 32.1745 127.54 33.2739 126.787 34.7195C126.054 36.1446 125.677 37.8651 125.657 39.8807ZM166.145 67V20.0909H179.155V67H166.145ZM172.68 14.044C170.746 14.044 169.087 13.4027 167.702 12.12C166.338 10.817 165.656 9.25947 165.656 7.44744C165.656 5.65577 166.338 4.11861 167.702 2.83594C169.087 1.53291 170.746 0.881389 172.68 0.881389C174.615 0.881389 176.264 1.53291 177.628 2.83594C179.012 4.11861 179.705 5.65577 179.705 7.44744C179.705 9.25947 179.012 10.817 177.628 12.12C176.264 13.4027 174.615 14.044 172.68 14.044ZM202.586 4.45454V67H189.577V4.45454H202.586ZM234.203 67.9162C229.459 67.9162 225.356 66.9084 221.895 64.8928C218.454 62.8568 215.797 60.0268 213.924 56.4027C212.051 52.7583 211.115 48.5336 211.115 43.7287C211.115 38.883 212.051 34.6482 213.924 31.0241C215.797 27.3797 218.454 24.5497 221.895 22.5341C225.356 20.4981 229.459 19.4801 234.203 19.4801C238.947 19.4801 243.039 20.4981 246.48 22.5341C249.941 24.5497 252.608 27.3797 254.481 31.0241C256.354 34.6482 257.291 38.883 257.291 43.7287C257.291 48.5336 256.354 52.7583 254.481 56.4027C252.608 60.0268 249.941 62.8568 246.48 64.8928C243.039 66.9084 238.947 67.9162 234.203 67.9162ZM234.264 57.8381C236.422 57.8381 238.224 57.2273 239.669 56.0057C241.115 54.7637 242.204 53.0739 242.937 50.9361C243.69 48.7983 244.067 46.3653 244.067 43.6371C244.067 40.9089 243.69 38.4759 242.937 36.3381C242.204 34.2003 241.115 32.5104 239.669 31.2685C238.224 30.0265 236.422 29.4055 234.264 29.4055C232.085 29.4055 230.253 30.0265 228.767 31.2685C227.301 32.5104 226.191 34.2003 225.438 36.3381C224.705 38.4759 224.338 40.9089 224.338 43.6371C224.338 46.3653 224.705 48.7983 225.438 50.9361C226.191 53.0739 227.301 54.7637 228.767 56.0057C230.253 57.2273 232.085 57.8381 234.264 57.8381Z" fill="url(#paint0_linear_40_3)"/>
<defs>
<linearGradient id="paint0_linear_40_3" x1="-5" y1="36" x2="261" y2="36" gradientUnits="userSpaceOnUse">
<stop stop-color="#8052F5"/>
<stop offset="1" stop-color="#EE82D6"/>
</linearGradient>
</defs>
</svg>
