<svg width="48" height="49" viewBox="0 0 48 49" fill="none" xmlns="http://www.w3.org/2000/svg">
<rect y="0.125977" width="48" height="48" rx="24" fill="#8052F5" fill-opacity="0.25"/>
<g clip-path="url(#clip0_1_321)">
<path d="M40 24.5259C40 28.1003 38.9824 31.3147 36.9472 34.1691C34.912 37.0235 32.2837 38.9984 29.0624 40.0939C28.6869 40.1664 28.4128 40.1168 28.24 39.9451C28.1548 39.8621 28.0877 39.7624 28.0428 39.6523C27.9979 39.5422 27.9763 39.424 27.9792 39.3051V34.7979C27.9792 33.4166 27.6181 32.4059 26.896 31.7659C27.6166 31.6918 28.3307 31.5634 29.032 31.3819C29.6624 31.2112 30.3147 30.9339 30.9888 30.5499C31.6355 30.1862 32.2081 29.7043 32.6768 29.1291C33.128 28.5659 33.496 27.8182 33.7808 26.8859C34.0656 25.9536 34.208 24.8827 34.208 23.6731C34.208 21.9494 33.6597 20.4827 32.5632 19.2731C33.0752 17.9782 33.0192 16.5259 32.3952 14.9163C32.0069 14.7883 31.4448 14.8667 30.7088 15.1515C30.0414 15.4028 29.3996 15.7173 28.792 16.0907L28 16.6027C26.6993 16.2312 25.3527 16.0448 24 16.0491C22.6472 16.0453 21.3006 16.2322 20 16.6043C19.7104 16.4042 19.4154 16.2121 19.1152 16.0283C18.7472 15.8 18.1669 15.5259 17.3744 15.2059C16.584 14.8859 15.9867 14.7899 15.5824 14.9179C14.9723 16.5254 14.9243 17.9771 15.4384 19.2731C14.3397 20.4827 13.7904 21.9494 13.7904 23.6731C13.7904 24.8827 13.9333 25.9504 14.2192 26.8763C14.504 27.8011 14.8683 28.5483 15.312 29.1179C15.7707 29.7011 16.3406 30.1873 16.9888 30.5483C17.6629 30.9323 18.3157 31.2096 18.9472 31.3803C19.5797 31.5531 20.2917 31.6816 21.0832 31.7659C20.5285 32.2779 20.1883 33.0112 20.0624 33.9659C19.7643 34.111 19.4494 34.2185 19.1248 34.2859C18.7338 34.3626 18.336 34.3985 17.9376 34.3931C17.4789 34.3931 17.024 34.24 16.5728 33.9339C16.1216 33.6267 15.736 33.1819 15.416 32.5995C15.1675 32.158 14.8223 31.7784 14.4064 31.4891C13.9968 31.2043 13.6528 31.0336 13.3744 30.9771L12.9584 30.9131C12.6672 30.9131 12.4656 30.9451 12.3536 31.0091C12.2416 31.0731 12.2069 31.1547 12.2496 31.2539C12.2958 31.3629 12.359 31.4639 12.4368 31.5531C12.5172 31.6487 12.6084 31.7347 12.7088 31.8091L12.8528 31.9147C13.1589 32.0587 13.4613 32.3296 13.76 32.7275C14.0587 33.1264 14.2773 33.4891 14.416 33.8155L14.624 34.3067C14.8053 34.8475 15.1115 35.2854 15.5424 35.6203C15.9733 35.9563 16.4384 36.1696 16.9376 36.2603C17.4368 36.3531 17.9195 36.4032 18.3856 36.4107C18.8507 36.4171 19.2363 36.392 19.5424 36.3355L20.0208 36.2507C20.0208 36.7915 20.0245 37.4251 20.032 38.1515L20.0416 39.3035C20.0416 39.5595 19.9509 39.7728 19.7696 39.9435C19.5904 40.1163 19.3131 40.1664 18.9376 40.0939C15.7152 38.9974 13.0869 37.0224 11.0528 34.1691C9.0176 31.3136 8 28.0992 8 24.5259C8 21.5499 8.7152 18.8059 10.1456 16.2939C11.5314 13.8293 13.5396 11.7715 15.9696 10.3259C18.3928 8.86718 21.1717 8.10588 24 8.12588C26.8288 8.10558 29.6083 8.8669 32.032 10.3259C34.4614 11.7717 36.469 13.8295 37.8544 16.2939C39.2848 18.807 40 21.551 40 24.5259Z" fill="#8052F5"/>
</g>
<defs>
<clipPath id="clip0_1_321">
<rect width="32" height="32" fill="white" transform="translate(8 8.12598)"/>
</clipPath>
</defs>
</svg>
