<svg width="48" height="49" viewBox="0 0 48 49" fill="none" xmlns="http://www.w3.org/2000/svg">
<rect y="0.625977" width="48" height="48" rx="24" fill="#8052F5" fill-opacity="0.25"/>
<path d="M27.484 16.563V22.04L29.4 23.245C29.4692 23.2599 29.5408 23.2599 29.61 23.245L37.848 17.691C37.842 17.4214 37.7434 17.1622 37.5687 16.9568C37.3941 16.7513 37.1541 16.6123 36.889 16.563H27.484Z" fill="#8052F5"/>
<path d="M27.484 24.0828L29.231 25.2828C29.3127 25.3328 29.4067 25.3593 29.5025 25.3593C29.5983 25.3593 29.6923 25.3328 29.774 25.2828C29.474 25.4638 37.847 19.9048 37.847 19.9048V29.9708C37.8688 30.1748 37.8458 30.381 37.7796 30.5752C37.7134 30.7693 37.6056 30.9467 37.4636 31.0948C37.3217 31.2429 37.1491 31.3582 36.958 31.4327C36.7668 31.5071 36.5617 31.5389 36.357 31.5258H27.483L27.484 24.0828ZM18.44 21.5578C18.1498 21.5565 17.8646 21.6337 17.6146 21.7812C17.3646 21.9287 17.1592 22.1411 17.02 22.3958C16.6401 23.0711 16.4578 23.8397 16.494 24.6138C16.4545 25.3862 16.6371 26.1538 17.02 26.8258C17.1585 27.0701 17.3589 27.2736 17.601 27.4159C17.8431 27.5583 18.1183 27.6344 18.3992 27.6366C18.68 27.6388 18.9564 27.5671 19.2007 27.4286C19.4451 27.2902 19.6486 27.0898 19.791 26.8478C20.1705 26.1792 20.3493 25.4154 20.306 24.6478C20.3493 23.8562 20.1765 23.0677 19.806 22.3668C19.6732 22.1206 19.4759 21.9152 19.2353 21.7727C18.9946 21.6302 18.7197 21.5559 18.44 21.5578Z" fill="#8052F5"/>
<path d="M10.153 13.781V35.208L26.453 38.626V10.626L10.153 13.781ZM21.061 28.117C20.7561 28.5469 20.3507 28.8957 19.8801 29.1329C19.4095 29.3701 18.8879 29.4886 18.361 29.478C17.8473 29.4871 17.3391 29.372 16.8794 29.1426C16.4198 28.9131 16.0224 28.576 15.721 28.16C15.0063 27.162 14.6487 25.9522 14.706 24.726C14.6453 23.4396 15.0094 22.169 15.742 21.11C16.051 20.6721 16.4628 20.3169 16.9413 20.0755C17.4198 19.8342 17.9502 19.7142 18.486 19.726C18.9959 19.7161 19.5004 19.8313 19.9554 20.0616C20.4104 20.2919 20.802 20.6302 21.096 21.047C21.8036 22.0666 22.1551 23.2912 22.096 24.531C22.1586 25.8081 21.7944 27.0696 21.061 28.117Z" fill="#8052F5"/>
</svg>
