<svg width="48" height="50" viewBox="0 0 48 50" fill="none" xmlns="http://www.w3.org/2000/svg">
<rect y="0.625977" width="48" height="48.5002" rx="24" fill="#8052F5" fill-opacity="0.25"/>
<path d="M37.25 9.62609H11.25C10.6601 9.62009 10.0919 9.84835 9.67005 10.2608C9.24823 10.6732 9.00725 11.2362 9 11.8261V37.9311C9.00856 38.5201 9.25012 39.0818 9.67179 39.4932C10.0935 39.9045 10.6609 40.1321 11.25 40.1261H37.25C37.84 40.1308 38.4078 39.9017 38.8294 39.489C39.251 39.0763 39.4921 38.5135 39.5 37.9236V11.8186C39.4895 11.2304 39.2472 10.6702 38.8259 10.2596C38.4046 9.84905 37.8383 9.62139 37.25 9.62609Z" fill="#8052F5"/>
<path d="M13.265 20.9991H17.7925V35.7943H13.265V20.9991ZM15.53 13.6357C16.0493 13.6357 16.5569 13.7922 16.9886 14.0852C17.4204 14.3783 17.7568 14.7948 17.9554 15.2821C18.154 15.7694 18.2059 16.3056 18.1044 16.8228C18.0029 17.3401 17.7526 17.8151 17.3853 18.1878C17.0179 18.5606 16.5499 18.8143 16.0406 18.9169C15.5312 19.0195 15.0033 18.9663 14.5237 18.7641C14.0441 18.562 13.6343 18.2199 13.3462 17.7811C13.058 17.3423 12.9045 16.8266 12.905 16.2992C12.9057 15.5926 13.1825 14.9151 13.6747 14.4157C14.1669 13.9163 14.8342 13.6357 15.53 13.6357ZM20.6325 20.9991H24.9725V23.0303H25.0325C25.6375 21.8674 27.1125 20.6411 29.315 20.6411C33.9 20.6309 34.75 23.6956 34.75 27.6692V35.7943H30.2225V28.596C30.2225 26.8821 30.1925 24.6757 27.87 24.6757C25.5475 24.6757 25.1525 26.5444 25.1525 28.4843V35.7943H20.6325V20.9991Z" fill="white"/>
</svg>
