<svg width="524" height="63" viewBox="0 0 524 63" fill="none" xmlns="http://www.w3.org/2000/svg">
<path d="M54.7001 35.358C52.791 35.358 51.0907 35.0298 49.5993 34.3736C48.1163 33.7088 46.9444 32.7969 46.0836 31.6378C45.2314 30.4702 44.7924 29.1236 44.7669 27.598H50.3407C50.3748 28.2372 50.5836 28.7997 50.9672 29.2855C51.3592 29.7628 51.8791 30.1335 52.5268 30.3977C53.1745 30.6619 53.9032 30.794 54.7129 30.794C55.5566 30.794 56.3024 30.6449 56.9501 30.3466C57.5978 30.0483 58.1049 29.6349 58.4714 29.1065C58.8379 28.5781 59.0211 27.9687 59.0211 27.2784C59.0211 26.5795 58.8251 25.9616 58.4331 25.4247C58.0495 24.8793 57.4956 24.4531 56.7711 24.1463C56.0552 23.8395 55.2029 23.6861 54.2143 23.6861H51.7726V19.6207H54.2143C55.0495 19.6207 55.7868 19.4759 56.426 19.1861C57.0737 18.8963 57.5765 18.4957 57.9345 17.9844C58.2924 17.4645 58.4714 16.8594 58.4714 16.169C58.4714 15.5128 58.3137 14.9375 57.9984 14.4432C57.6916 13.9403 57.2569 13.5483 56.6944 13.267C56.1404 12.9858 55.4927 12.8452 54.7512 12.8452C54.0012 12.8452 53.3152 12.9815 52.693 13.2543C52.0708 13.5185 51.5723 13.8977 51.1973 14.392C50.8223 14.8864 50.622 15.4659 50.5964 16.1307H45.291C45.3166 14.6222 45.747 13.2926 46.5822 12.142C47.4174 10.9915 48.5424 10.0923 49.9572 9.4446C51.3805 8.78835 52.987 8.46023 54.7768 8.46023C56.5836 8.46023 58.1646 8.78835 59.5197 9.4446C60.8748 10.1009 61.9274 10.9872 62.6774 12.1037C63.4359 13.2116 63.8109 14.456 63.8024 15.8366C63.8109 17.3026 63.3549 18.5256 62.4345 19.5057C61.5226 20.4858 60.3336 21.108 58.8677 21.3722V21.5767C60.7939 21.8239 62.2598 22.4929 63.2654 23.5838C64.2797 24.6662 64.7825 26.0213 64.774 27.6491C64.7825 29.1406 64.3521 30.4659 63.4828 31.625C62.622 32.7841 61.4331 33.696 59.916 34.3608C58.399 35.0256 56.6603 35.358 54.7001 35.358ZM76.5769 31.0114V12.9091H81.1536V31.0114H76.5769ZM69.8141 24.2486V19.6719H87.9164V24.2486H69.8141Z" fill="url(#paint0_linear_1_59)"/>
<path d="M0.880682 47.3636H2.875L5.91477 52.6534H6.03977L9.07955 47.3636H11.0739L6.85227 54.4318V59H5.10227V54.4318L0.880682 47.3636ZM14.919 59.1761C14.0592 59.1761 13.3187 58.9924 12.6974 58.625C12.08 58.2538 11.6027 57.733 11.2656 57.0625C10.9323 56.3883 10.7656 55.5985 10.7656 54.6932C10.7656 53.7992 10.9323 53.0114 11.2656 52.3295C11.6027 51.6477 12.0724 51.1155 12.6747 50.733C13.2808 50.3504 13.9891 50.1591 14.7997 50.1591C15.2921 50.1591 15.7694 50.2405 16.2315 50.4034C16.6937 50.5663 17.1084 50.822 17.4759 51.1705C17.8433 51.5189 18.133 51.9716 18.3452 52.5284C18.5573 53.0814 18.6634 53.7538 18.6634 54.5455V55.1477H11.7259V53.875H16.9986C16.9986 53.428 16.9077 53.0322 16.7259 52.6875C16.544 52.339 16.2884 52.0644 15.9588 51.8636C15.633 51.6629 15.2505 51.5625 14.8111 51.5625C14.3338 51.5625 13.9171 51.6799 13.5611 51.9148C13.2088 52.1458 12.9361 52.4489 12.7429 52.8239C12.5535 53.1951 12.4588 53.5985 12.4588 54.0341V55.0284C12.4588 55.6117 12.5611 56.108 12.7656 56.517C12.974 56.9261 13.2637 57.2386 13.6349 57.4545C14.0062 57.6667 14.4399 57.7727 14.9361 57.7727C15.258 57.7727 15.5516 57.7273 15.8168 57.6364C16.0819 57.5417 16.3111 57.4015 16.5043 57.2159C16.6974 57.0303 16.8452 56.8011 16.9474 56.5284L18.5554 56.8182C18.4266 57.2917 18.1955 57.7064 17.8622 58.0625C17.5327 58.4148 17.1179 58.6894 16.6179 58.8864C16.1217 59.0795 15.5554 59.1761 14.919 59.1761ZM23.0881 59.1932C22.535 59.1932 22.035 59.0909 21.5881 58.8864C21.1411 58.678 20.7869 58.3769 20.5256 57.983C20.268 57.589 20.1392 57.1061 20.1392 56.5341C20.1392 56.0417 20.2339 55.6364 20.4233 55.3182C20.6127 55 20.8684 54.7481 21.1903 54.5625C21.5123 54.3769 21.8722 54.2367 22.2699 54.142C22.6676 54.0473 23.0729 53.9754 23.4858 53.9261C24.0085 53.8655 24.4328 53.8163 24.7585 53.7784C25.0843 53.7367 25.321 53.6705 25.4688 53.5795C25.6165 53.4886 25.6903 53.3409 25.6903 53.1364V53.0966C25.6903 52.6004 25.5502 52.2159 25.2699 51.9432C24.9934 51.6705 24.5805 51.5341 24.0312 51.5341C23.4593 51.5341 23.0085 51.661 22.679 51.9148C22.3532 52.1648 22.1278 52.4432 22.0028 52.75L20.4062 52.3864C20.5956 51.8561 20.8722 51.428 21.2358 51.1023C21.6032 50.7727 22.0256 50.5341 22.5028 50.3864C22.9801 50.2348 23.482 50.1591 24.0085 50.1591C24.357 50.1591 24.7263 50.2008 25.1165 50.2841C25.5104 50.3636 25.8778 50.5114 26.2188 50.7273C26.5634 50.9432 26.8456 51.2519 27.0653 51.6534C27.285 52.0511 27.3949 52.5682 27.3949 53.2045V59H25.7358V57.8068H25.6676C25.5578 58.0265 25.393 58.2424 25.1733 58.4545C24.9536 58.6667 24.6714 58.8428 24.3267 58.983C23.982 59.1231 23.5691 59.1932 23.0881 59.1932ZM23.4574 57.8295C23.9271 57.8295 24.3286 57.7367 24.6619 57.5511C24.9991 57.3655 25.2547 57.1231 25.429 56.8239C25.607 56.5208 25.696 56.197 25.696 55.8523V54.7273C25.6354 54.7879 25.518 54.8447 25.3438 54.8977C25.1733 54.947 24.9782 54.9905 24.7585 55.0284C24.5388 55.0625 24.3248 55.0947 24.1165 55.125C23.9081 55.1515 23.7339 55.1742 23.5938 55.1932C23.2642 55.2348 22.9631 55.3049 22.6903 55.4034C22.4214 55.5019 22.2055 55.6439 22.0426 55.8295C21.8835 56.0114 21.804 56.2538 21.804 56.5568C21.804 56.9773 21.9593 57.2955 22.2699 57.5114C22.5805 57.7235 22.9763 57.8295 23.4574 57.8295ZM29.6577 59V50.2727H31.2997V51.6591H31.3906C31.5497 51.1894 31.83 50.8201 32.2315 50.5511C32.6368 50.2784 33.0952 50.142 33.6065 50.142C33.7126 50.142 33.8376 50.1458 33.9815 50.1534C34.1293 50.161 34.2448 50.1705 34.3281 50.1818V51.8068C34.2599 51.7879 34.1387 51.767 33.9645 51.7443C33.7902 51.7178 33.616 51.7045 33.4418 51.7045C33.0402 51.7045 32.6823 51.7898 32.3679 51.9602C32.0573 52.1269 31.8111 52.3598 31.6293 52.6591C31.4474 52.9545 31.3565 53.2917 31.3565 53.6705V59H29.6577ZM42.3381 52.4034L40.7983 52.6761C40.7339 52.4792 40.6316 52.2917 40.4915 52.1136C40.3551 51.9356 40.1695 51.7898 39.9347 51.6761C39.6998 51.5625 39.4063 51.5057 39.054 51.5057C38.5729 51.5057 38.1714 51.6136 37.8494 51.8295C37.5275 52.0417 37.3665 52.3163 37.3665 52.6534C37.3665 52.9451 37.4744 53.1799 37.6903 53.358C37.9063 53.536 38.2547 53.6818 38.7358 53.7955L40.1222 54.1136C40.9252 54.2992 41.5237 54.5852 41.9176 54.9716C42.3116 55.358 42.5085 55.8598 42.5085 56.4773C42.5085 57 42.357 57.4659 42.054 57.875C41.7547 58.2803 41.3362 58.5985 40.7983 58.8295C40.2642 59.0606 39.6449 59.1761 38.9403 59.1761C37.9631 59.1761 37.1657 58.9678 36.5483 58.5511C35.9309 58.1307 35.5521 57.5341 35.4119 56.7614L37.054 56.5114C37.1563 56.9394 37.3665 57.2633 37.6847 57.483C38.0028 57.6989 38.4176 57.8068 38.929 57.8068C39.4858 57.8068 39.9309 57.6913 40.2642 57.4602C40.5975 57.2254 40.7642 56.9394 40.7642 56.6023C40.7642 56.3295 40.6619 56.1004 40.4574 55.9148C40.2566 55.7292 39.9479 55.589 39.5312 55.4943L38.054 55.1705C37.2396 54.9848 36.6373 54.6894 36.2472 54.2841C35.8608 53.8788 35.6676 53.3655 35.6676 52.7443C35.6676 52.2292 35.8116 51.7784 36.0994 51.392C36.3873 51.0057 36.785 50.7045 37.2926 50.4886C37.8002 50.2689 38.3816 50.1591 39.0369 50.1591C39.9801 50.1591 40.7225 50.3636 41.2642 50.7727C41.8059 51.178 42.1638 51.7216 42.3381 52.4034ZM48.7472 59V47.3636H56.0426V48.875H50.5028V52.4205H55.6619V53.9261H50.5028V57.4886H56.1108V59H48.7472ZM59.5923 50.2727L61.5185 53.6705L63.4616 50.2727H65.3196L62.598 54.6364L65.3423 59H63.4844L61.5185 55.7386L59.5582 59H57.6946L60.4105 54.6364L57.7287 50.2727H59.5923ZM67.0639 62.2727V50.2727H68.723V51.6875H68.8651C68.9635 51.5057 69.1056 51.2955 69.2912 51.0568C69.4768 50.8182 69.7344 50.6098 70.0639 50.4318C70.3935 50.25 70.8291 50.1591 71.3707 50.1591C72.0753 50.1591 72.7041 50.3371 73.2571 50.6932C73.8101 51.0492 74.2438 51.5625 74.5582 52.233C74.8764 52.9034 75.0355 53.7102 75.0355 54.6534C75.0355 55.5966 74.8783 56.4053 74.5639 57.0795C74.2495 57.75 73.8177 58.267 73.2685 58.6307C72.7192 58.9905 72.0923 59.1705 71.3878 59.1705C70.8575 59.1705 70.4238 59.0814 70.0866 58.9034C69.7533 58.7254 69.492 58.517 69.3026 58.2784C69.1132 58.0398 68.9673 57.8277 68.8651 57.642H68.7628V62.2727H67.0639ZM68.7287 54.6364C68.7287 55.25 68.8177 55.7879 68.9957 56.25C69.1738 56.7121 69.4313 57.0739 69.7685 57.3352C70.1056 57.5928 70.5185 57.7216 71.0071 57.7216C71.5147 57.7216 71.9389 57.5871 72.2798 57.3182C72.6207 57.0455 72.8783 56.6761 73.0526 56.2102C73.2306 55.7443 73.3196 55.2197 73.3196 54.6364C73.3196 54.0606 73.2325 53.5436 73.0582 53.0852C72.8878 52.6269 72.6302 52.2652 72.2855 52C71.9446 51.7348 71.5185 51.6023 71.0071 51.6023C70.5147 51.6023 70.098 51.7292 69.7571 51.983C69.42 52.2367 69.1643 52.5909 68.9901 53.0455C68.8158 53.5 68.7287 54.0303 68.7287 54.6364ZM80.7003 59.1761C79.8404 59.1761 79.0999 58.9924 78.4787 58.625C77.8613 58.2538 77.384 57.733 77.0469 57.0625C76.7135 56.3883 76.5469 55.5985 76.5469 54.6932C76.5469 53.7992 76.7135 53.0114 77.0469 52.3295C77.384 51.6477 77.8537 51.1155 78.456 50.733C79.062 50.3504 79.7704 50.1591 80.581 50.1591C81.0734 50.1591 81.5507 50.2405 82.0128 50.4034C82.4749 50.5663 82.8897 50.822 83.2571 51.1705C83.6245 51.5189 83.9143 51.9716 84.1264 52.5284C84.3385 53.0814 84.4446 53.7538 84.4446 54.5455V55.1477H77.5071V53.875H82.7798C82.7798 53.428 82.6889 53.0322 82.5071 52.6875C82.3253 52.339 82.0696 52.0644 81.7401 51.8636C81.4143 51.6629 81.0317 51.5625 80.5923 51.5625C80.1151 51.5625 79.6984 51.6799 79.3423 51.9148C78.9901 52.1458 78.7173 52.4489 78.5241 52.8239C78.3348 53.1951 78.2401 53.5985 78.2401 54.0341V55.0284C78.2401 55.6117 78.3423 56.108 78.5469 56.517C78.7552 56.9261 79.045 57.2386 79.4162 57.4545C79.7874 57.6667 80.2211 57.7727 80.7173 57.7727C81.0393 57.7727 81.3329 57.7273 81.598 57.6364C81.8632 57.5417 82.0923 57.4015 82.2855 57.2159C82.4787 57.0303 82.6264 56.8011 82.7287 56.5284L84.3366 56.8182C84.2079 57.2917 83.9768 57.7064 83.6435 58.0625C83.3139 58.4148 82.8991 58.6894 82.3991 58.8864C81.9029 59.0795 81.3366 59.1761 80.7003 59.1761ZM86.3295 59V50.2727H87.9716V51.6591H88.0625C88.2216 51.1894 88.5019 50.8201 88.9034 50.5511C89.3087 50.2784 89.767 50.142 90.2784 50.142C90.3845 50.142 90.5095 50.1458 90.6534 50.1534C90.8011 50.161 90.9167 50.1705 91 50.1818V51.8068C90.9318 51.7879 90.8106 51.767 90.6364 51.7443C90.4621 51.7178 90.2879 51.7045 90.1136 51.7045C89.7121 51.7045 89.3542 51.7898 89.0398 51.9602C88.7292 52.1269 88.483 52.3598 88.3011 52.6591C88.1193 52.9545 88.0284 53.2917 88.0284 53.6705V59H86.3295ZM92.4702 59V50.2727H94.169V59H92.4702ZM93.3281 48.9261C93.0327 48.9261 92.7789 48.8277 92.5668 48.6307C92.3584 48.4299 92.2543 48.1913 92.2543 47.9148C92.2543 47.6345 92.3584 47.3958 92.5668 47.1989C92.7789 46.9981 93.0327 46.8977 93.3281 46.8977C93.6236 46.8977 93.8755 46.9981 94.0838 47.1989C94.2959 47.3958 94.402 47.6345 94.402 47.9148C94.402 48.1913 94.2959 48.4299 94.0838 48.6307C93.8755 48.8277 93.6236 48.9261 93.3281 48.9261ZM100.216 59.1761C99.3561 59.1761 98.6155 58.9924 97.9943 58.625C97.3769 58.2538 96.8996 57.733 96.5625 57.0625C96.2292 56.3883 96.0625 55.5985 96.0625 54.6932C96.0625 53.7992 96.2292 53.0114 96.5625 52.3295C96.8996 51.6477 97.3693 51.1155 97.9716 50.733C98.5777 50.3504 99.286 50.1591 100.097 50.1591C100.589 50.1591 101.066 50.2405 101.528 50.4034C101.991 50.5663 102.405 50.822 102.773 51.1705C103.14 51.5189 103.43 51.9716 103.642 52.5284C103.854 53.0814 103.96 53.7538 103.96 54.5455V55.1477H97.0227V53.875H102.295C102.295 53.428 102.205 53.0322 102.023 52.6875C101.841 52.339 101.585 52.0644 101.256 51.8636C100.93 51.6629 100.547 51.5625 100.108 51.5625C99.6307 51.5625 99.214 51.6799 98.858 51.9148C98.5057 52.1458 98.233 52.4489 98.0398 52.8239C97.8504 53.1951 97.7557 53.5985 97.7557 54.0341V55.0284C97.7557 55.6117 97.858 56.108 98.0625 56.517C98.2708 56.9261 98.5606 57.2386 98.9318 57.4545C99.303 57.6667 99.7367 57.7727 100.233 57.7727C100.555 57.7727 100.848 57.7273 101.114 57.6364C101.379 57.5417 101.608 57.4015 101.801 57.2159C101.994 57.0303 102.142 56.8011 102.244 56.5284L103.852 56.8182C103.723 57.2917 103.492 57.7064 103.159 58.0625C102.83 58.4148 102.415 58.6894 101.915 58.8864C101.419 59.0795 100.852 59.1761 100.216 59.1761ZM107.544 53.8182V59H105.845V50.2727H107.476V51.6932H107.584C107.785 51.2311 108.099 50.8598 108.527 50.5795C108.959 50.2992 109.502 50.1591 110.158 50.1591C110.752 50.1591 111.273 50.2841 111.72 50.5341C112.167 50.7803 112.514 51.1477 112.76 51.6364C113.006 52.125 113.129 52.7292 113.129 53.4489V59H111.43V53.6534C111.43 53.0208 111.266 52.5265 110.936 52.1705C110.607 51.8106 110.154 51.6307 109.578 51.6307C109.184 51.6307 108.834 51.7159 108.527 51.8864C108.224 52.0568 107.983 52.3068 107.805 52.6364C107.631 52.9621 107.544 53.3561 107.544 53.8182ZM119.084 59.1761C118.239 59.1761 117.512 58.9848 116.902 58.6023C116.296 58.2159 115.83 57.6837 115.504 57.0057C115.179 56.3277 115.016 55.5511 115.016 54.6761C115.016 53.7898 115.182 53.0076 115.516 52.3295C115.849 51.6477 116.319 51.1155 116.925 50.733C117.531 50.3504 118.245 50.1591 119.067 50.1591C119.73 50.1591 120.321 50.2822 120.839 50.5284C121.358 50.7708 121.777 51.1117 122.095 51.5511C122.417 51.9905 122.608 52.5038 122.669 53.0909H121.016C120.925 52.6818 120.716 52.3295 120.391 52.0341C120.069 51.7386 119.637 51.5909 119.095 51.5909C118.622 51.5909 118.207 51.7159 117.851 51.9659C117.499 52.2121 117.224 52.5644 117.027 53.0227C116.83 53.4773 116.732 54.0152 116.732 54.6364C116.732 55.2727 116.828 55.822 117.021 56.2841C117.214 56.7462 117.487 57.1042 117.839 57.358C118.196 57.6117 118.614 57.7386 119.095 57.7386C119.417 57.7386 119.709 57.6799 119.97 57.5625C120.235 57.4413 120.457 57.2689 120.635 57.0455C120.817 56.822 120.944 56.553 121.016 56.2386H122.669C122.608 56.803 122.425 57.3068 122.118 57.75C121.811 58.1932 121.4 58.5417 120.885 58.7955C120.374 59.0492 119.773 59.1761 119.084 59.1761ZM128.247 59.1761C127.387 59.1761 126.647 58.9924 126.026 58.625C125.408 58.2538 124.931 57.733 124.594 57.0625C124.26 56.3883 124.094 55.5985 124.094 54.6932C124.094 53.7992 124.26 53.0114 124.594 52.3295C124.931 51.6477 125.401 51.1155 126.003 50.733C126.609 50.3504 127.317 50.1591 128.128 50.1591C128.62 50.1591 129.098 50.2405 129.56 50.4034C130.022 50.5663 130.437 50.822 130.804 51.1705C131.171 51.5189 131.461 51.9716 131.673 52.5284C131.885 53.0814 131.991 53.7538 131.991 54.5455V55.1477H125.054V53.875H130.327C130.327 53.428 130.236 53.0322 130.054 52.6875C129.872 52.339 129.616 52.0644 129.287 51.8636C128.961 51.6629 128.579 51.5625 128.139 51.5625C127.662 51.5625 127.245 51.6799 126.889 51.9148C126.537 52.1458 126.264 52.4489 126.071 52.8239C125.882 53.1951 125.787 53.5985 125.787 54.0341V55.0284C125.787 55.6117 125.889 56.108 126.094 56.517C126.302 56.9261 126.592 57.2386 126.963 57.4545C127.334 57.6667 127.768 57.7727 128.264 57.7727C128.586 57.7727 128.88 57.7273 129.145 57.6364C129.41 57.5417 129.639 57.4015 129.832 57.2159C130.026 57.0303 130.173 56.8011 130.276 56.5284L131.884 56.8182C131.755 57.2917 131.524 57.7064 131.19 58.0625C130.861 58.4148 130.446 58.6894 129.946 58.8864C129.45 59.0795 128.884 59.1761 128.247 59.1761Z" fill="#616161"/>
<path d="M255.079 8.81818V35H249.544V14.0724H249.39L243.395 17.831V12.9219L249.876 8.81818H255.079ZM271.567 35.5753C269.369 35.5668 267.477 35.0256 265.891 33.9517C264.315 32.8778 263.1 31.3224 262.248 29.2855C261.404 27.2486 260.987 24.7983 260.995 21.9347C260.995 19.0795 261.417 16.6463 262.261 14.6349C263.113 12.6236 264.327 11.0937 265.904 10.0455C267.489 8.98864 269.377 8.46023 271.567 8.46023C273.758 8.46023 275.641 8.98864 277.218 10.0455C278.803 11.1023 280.022 12.6364 280.874 14.6477C281.727 16.6506 282.148 19.0795 282.14 21.9347C282.14 24.8068 281.714 27.2614 280.862 29.2983C280.018 31.3352 278.808 32.8906 277.231 33.9645C275.654 35.0384 273.766 35.5753 271.567 35.5753ZM271.567 30.9858C273.067 30.9858 274.265 30.2315 275.16 28.723C276.055 27.2145 276.498 24.9517 276.489 21.9347C276.489 19.9489 276.285 18.2955 275.876 16.9744C275.475 15.6534 274.904 14.6605 274.163 13.9957C273.43 13.331 272.565 12.9986 271.567 12.9986C270.076 12.9986 268.883 13.7443 267.988 15.2358C267.093 16.7273 266.641 18.9602 266.633 21.9347C266.633 23.946 266.833 25.625 267.234 26.9716C267.643 28.3097 268.218 29.3153 268.96 29.9886C269.701 30.6534 270.57 30.9858 271.567 30.9858ZM293.911 31.0114V12.9091H298.488V31.0114H293.911ZM287.148 24.2486V19.6719H305.25V24.2486H287.148Z" fill="url(#paint1_linear_1_59)"/>
<path d="M200.778 59V47.3636H204.926C205.831 47.3636 206.581 47.5284 207.176 47.858C207.771 48.1875 208.216 48.6383 208.511 49.2102C208.807 49.7784 208.955 50.4186 208.955 51.1307C208.955 51.8466 208.805 52.4905 208.506 53.0625C208.21 53.6307 207.763 54.0814 207.165 54.4148C206.57 54.7443 205.822 54.9091 204.92 54.9091H202.068V53.4205H204.761C205.333 53.4205 205.797 53.322 206.153 53.125C206.509 52.9242 206.771 52.6515 206.938 52.3068C207.104 51.9621 207.188 51.5701 207.188 51.1307C207.188 50.6913 207.104 50.3011 206.938 49.9602C206.771 49.6193 206.508 49.3523 206.148 49.1591C205.792 48.9659 205.322 48.8693 204.739 48.8693H202.534V59H200.778ZM210.876 59V50.2727H212.518V51.6591H212.609C212.768 51.1894 213.049 50.8201 213.45 50.5511C213.856 50.2784 214.314 50.142 214.825 50.142C214.931 50.142 215.056 50.1458 215.2 50.1534C215.348 50.161 215.464 50.1705 215.547 50.1818V51.8068C215.479 51.7879 215.357 51.767 215.183 51.7443C215.009 51.7178 214.835 51.7045 214.661 51.7045C214.259 51.7045 213.901 51.7898 213.587 51.9602C213.276 52.1269 213.03 52.3598 212.848 52.6591C212.666 52.9545 212.575 53.2917 212.575 53.6705V59H210.876ZM220.381 59.1761C219.563 59.1761 218.848 58.9886 218.239 58.6136C217.629 58.2386 217.155 57.714 216.818 57.0398C216.481 56.3655 216.312 55.5777 216.312 54.6761C216.312 53.7708 216.481 52.9792 216.818 52.3011C217.155 51.6231 217.629 51.0966 218.239 50.7216C218.848 50.3466 219.563 50.1591 220.381 50.1591C221.199 50.1591 221.913 50.3466 222.523 50.7216C223.133 51.0966 223.606 51.6231 223.943 52.3011C224.28 52.9792 224.449 53.7708 224.449 54.6761C224.449 55.5777 224.28 56.3655 223.943 57.0398C223.606 57.714 223.133 58.2386 222.523 58.6136C221.913 58.9886 221.199 59.1761 220.381 59.1761ZM220.386 57.75C220.917 57.75 221.356 57.6098 221.705 57.3295C222.053 57.0492 222.311 56.6761 222.477 56.2102C222.648 55.7443 222.733 55.2311 222.733 54.6705C222.733 54.1136 222.648 53.6023 222.477 53.1364C222.311 52.6667 222.053 52.2898 221.705 52.0057C221.356 51.7216 220.917 51.5795 220.386 51.5795C219.852 51.5795 219.409 51.7216 219.057 52.0057C218.708 52.2898 218.449 52.6667 218.278 53.1364C218.112 53.6023 218.028 54.1136 218.028 54.6705C218.028 55.2311 218.112 55.7443 218.278 56.2102C218.449 56.6761 218.708 57.0492 219.057 57.3295C219.409 57.6098 219.852 57.75 220.386 57.75ZM226.345 50.2727H228.044V59.5682C228.044 60.1515 227.938 60.6439 227.726 61.0455C227.518 61.447 227.207 61.7519 226.794 61.9602C226.385 62.1686 225.879 62.2727 225.277 62.2727C225.216 62.2727 225.16 62.2727 225.107 62.2727C225.05 62.2727 224.991 62.2708 224.93 62.267V60.8068C224.983 60.8068 225.031 60.8068 225.072 60.8068C225.11 60.8068 225.154 60.8068 225.203 60.8068C225.605 60.8068 225.894 60.6989 226.072 60.483C226.254 60.2708 226.345 59.9621 226.345 59.5568V50.2727ZM227.186 48.9261C226.891 48.9261 226.637 48.8277 226.425 48.6307C226.216 48.4299 226.112 48.1913 226.112 47.9148C226.112 47.6345 226.216 47.3958 226.425 47.1989C226.637 46.9981 226.891 46.8977 227.186 46.8977C227.482 46.8977 227.733 46.9981 227.942 47.1989C228.154 47.3958 228.26 47.6345 228.26 47.9148C228.26 48.1913 228.154 48.4299 227.942 48.6307C227.733 48.8277 227.482 48.9261 227.186 48.9261ZM234.091 59.1761C233.231 59.1761 232.491 58.9924 231.869 58.625C231.252 58.2538 230.775 57.733 230.438 57.0625C230.104 56.3883 229.938 55.5985 229.938 54.6932C229.938 53.7992 230.104 53.0114 230.438 52.3295C230.775 51.6477 231.244 51.1155 231.847 50.733C232.453 50.3504 233.161 50.1591 233.972 50.1591C234.464 50.1591 234.941 50.2405 235.403 50.4034C235.866 50.5663 236.28 50.822 236.648 51.1705C237.015 51.5189 237.305 51.9716 237.517 52.5284C237.729 53.0814 237.835 53.7538 237.835 54.5455V55.1477H230.898V53.875H236.17C236.17 53.428 236.08 53.0322 235.898 52.6875C235.716 52.339 235.46 52.0644 235.131 51.8636C234.805 51.6629 234.422 51.5625 233.983 51.5625C233.506 51.5625 233.089 51.6799 232.733 51.9148C232.381 52.1458 232.108 52.4489 231.915 52.8239C231.725 53.1951 231.631 53.5985 231.631 54.0341V55.0284C231.631 55.6117 231.733 56.108 231.938 56.517C232.146 56.9261 232.436 57.2386 232.807 57.4545C233.178 57.6667 233.612 57.7727 234.108 57.7727C234.43 57.7727 234.723 57.7273 234.989 57.6364C235.254 57.5417 235.483 57.4015 235.676 57.2159C235.869 57.0303 236.017 56.8011 236.119 56.5284L237.727 56.8182C237.598 57.2917 237.367 57.7064 237.034 58.0625C236.705 58.4148 236.29 58.6894 235.79 58.8864C235.294 59.0795 234.727 59.1761 234.091 59.1761ZM243.396 59.1761C242.552 59.1761 241.824 58.9848 241.214 58.6023C240.608 58.2159 240.143 57.6837 239.817 57.0057C239.491 56.3277 239.328 55.5511 239.328 54.6761C239.328 53.7898 239.495 53.0076 239.828 52.3295C240.161 51.6477 240.631 51.1155 241.237 50.733C241.843 50.3504 242.557 50.1591 243.379 50.1591C244.042 50.1591 244.633 50.2822 245.152 50.5284C245.671 50.7708 246.089 51.1117 246.408 51.5511C246.73 51.9905 246.921 52.5038 246.982 53.0909H245.328C245.237 52.6818 245.029 52.3295 244.703 52.0341C244.381 51.7386 243.949 51.5909 243.408 51.5909C242.934 51.5909 242.519 51.7159 242.163 51.9659C241.811 52.2121 241.536 52.5644 241.339 53.0227C241.143 53.4773 241.044 54.0152 241.044 54.6364C241.044 55.2727 241.141 55.822 241.334 56.2841C241.527 56.7462 241.8 57.1042 242.152 57.358C242.508 57.6117 242.927 57.7386 243.408 57.7386C243.73 57.7386 244.021 57.6799 244.283 57.5625C244.548 57.4413 244.769 57.2689 244.947 57.0455C245.129 56.822 245.256 56.553 245.328 56.2386H246.982C246.921 56.803 246.737 57.3068 246.43 57.75C246.124 58.1932 245.713 58.5417 245.197 58.7955C244.686 59.0492 244.086 59.1761 243.396 59.1761ZM252.872 50.2727V51.6364H248.105V50.2727H252.872ZM249.384 48.1818H251.082V56.4375C251.082 56.767 251.132 57.0152 251.23 57.1818C251.329 57.3447 251.455 57.4564 251.611 57.517C251.77 57.5739 251.942 57.6023 252.128 57.6023C252.264 57.6023 252.384 57.5928 252.486 57.5739C252.588 57.5549 252.668 57.5398 252.724 57.5284L253.031 58.9318C252.933 58.9697 252.793 59.0076 252.611 59.0455C252.429 59.0871 252.202 59.1098 251.929 59.1136C251.482 59.1212 251.065 59.0417 250.679 58.875C250.293 58.7083 249.98 58.4508 249.741 58.1023C249.503 57.7538 249.384 57.3163 249.384 56.7898V48.1818ZM261.151 52.4034L259.611 52.6761C259.546 52.4792 259.444 52.2917 259.304 52.1136C259.168 51.9356 258.982 51.7898 258.747 51.6761C258.512 51.5625 258.219 51.5057 257.866 51.5057C257.385 51.5057 256.984 51.6136 256.662 51.8295C256.34 52.0417 256.179 52.3163 256.179 52.6534C256.179 52.9451 256.287 53.1799 256.503 53.358C256.719 53.536 257.067 53.6818 257.548 53.7955L258.935 54.1136C259.738 54.2992 260.336 54.5852 260.73 54.9716C261.124 55.358 261.321 55.8598 261.321 56.4773C261.321 57 261.17 57.4659 260.866 57.875C260.567 58.2803 260.149 58.5985 259.611 58.8295C259.077 59.0606 258.457 59.1761 257.753 59.1761C256.776 59.1761 255.978 58.9678 255.361 58.5511C254.743 58.1307 254.365 57.5341 254.224 56.7614L255.866 56.5114C255.969 56.9394 256.179 57.2633 256.497 57.483C256.815 57.6989 257.23 57.8068 257.741 57.8068C258.298 57.8068 258.743 57.6913 259.077 57.4602C259.41 57.2254 259.577 56.9394 259.577 56.6023C259.577 56.3295 259.474 56.1004 259.27 55.9148C259.069 55.7292 258.76 55.589 258.344 55.4943L256.866 55.1705C256.052 54.9848 255.45 54.6894 255.06 54.2841C254.673 53.8788 254.48 53.3655 254.48 52.7443C254.48 52.2292 254.624 51.7784 254.912 51.392C255.2 51.0057 255.598 50.7045 256.105 50.4886C256.613 50.2689 257.194 50.1591 257.849 50.1591C258.793 50.1591 259.535 50.3636 260.077 50.7727C260.618 51.178 260.976 51.7216 261.151 52.4034ZM277.224 51.1477H275.452C275.384 50.7689 275.257 50.4356 275.071 50.1477C274.885 49.8598 274.658 49.6155 274.389 49.4148C274.12 49.214 273.819 49.0625 273.486 48.9602C273.156 48.858 272.806 48.8068 272.435 48.8068C271.764 48.8068 271.164 48.9754 270.634 49.3125C270.107 49.6496 269.69 50.1439 269.384 50.7955C269.08 51.447 268.929 52.2424 268.929 53.1818C268.929 54.1288 269.08 54.928 269.384 55.5795C269.69 56.2311 270.109 56.7235 270.639 57.0568C271.17 57.3902 271.766 57.5568 272.429 57.5568C272.796 57.5568 273.145 57.5076 273.474 57.4091C273.808 57.3068 274.109 57.1572 274.378 56.9602C274.647 56.7633 274.874 56.5227 275.06 56.2386C275.249 55.9508 275.38 55.6212 275.452 55.25L277.224 55.2557C277.13 55.8277 276.946 56.3542 276.673 56.8352C276.404 57.3125 276.058 57.7254 275.634 58.0739C275.213 58.4186 274.732 58.6856 274.19 58.875C273.649 59.0644 273.058 59.1591 272.418 59.1591C271.41 59.1591 270.512 58.9205 269.724 58.4432C268.937 57.9621 268.315 57.2746 267.861 56.3807C267.41 55.4867 267.185 54.4205 267.185 53.1818C267.185 51.9394 267.412 50.8731 267.866 49.983C268.321 49.089 268.942 48.4034 269.73 47.9261C270.518 47.4451 271.414 47.2045 272.418 47.2045C273.035 47.2045 273.611 47.2936 274.145 47.4716C274.683 47.6458 275.166 47.9034 275.594 48.2443C276.022 48.5814 276.376 48.9943 276.656 49.483C276.937 49.9678 277.126 50.5227 277.224 51.1477ZM282.865 59.1761C282.047 59.1761 281.333 58.9886 280.723 58.6136C280.113 58.2386 279.64 57.714 279.303 57.0398C278.965 56.3655 278.797 55.5777 278.797 54.6761C278.797 53.7708 278.965 52.9792 279.303 52.3011C279.64 51.6231 280.113 51.0966 280.723 50.7216C281.333 50.3466 282.047 50.1591 282.865 50.1591C283.683 50.1591 284.397 50.3466 285.007 50.7216C285.617 51.0966 286.09 51.6231 286.428 52.3011C286.765 52.9792 286.933 53.7708 286.933 54.6761C286.933 55.5777 286.765 56.3655 286.428 57.0398C286.09 57.714 285.617 58.2386 285.007 58.6136C284.397 58.9886 283.683 59.1761 282.865 59.1761ZM282.871 57.75C283.401 57.75 283.84 57.6098 284.189 57.3295C284.537 57.0492 284.795 56.6761 284.962 56.2102C285.132 55.7443 285.217 55.2311 285.217 54.6705C285.217 54.1136 285.132 53.6023 284.962 53.1364C284.795 52.6667 284.537 52.2898 284.189 52.0057C283.84 51.7216 283.401 51.5795 282.871 51.5795C282.337 51.5795 281.893 51.7216 281.541 52.0057C281.193 52.2898 280.933 52.6667 280.763 53.1364C280.596 53.6023 280.513 54.1136 280.513 54.6705C280.513 55.2311 280.596 55.7443 280.763 56.2102C280.933 56.6761 281.193 57.0492 281.541 57.3295C281.893 57.6098 282.337 57.75 282.871 57.75ZM288.83 59V50.2727H290.46V51.6932H290.568C290.75 51.2121 291.047 50.8371 291.46 50.5682C291.873 50.2955 292.367 50.1591 292.943 50.1591C293.527 50.1591 294.015 50.2955 294.409 50.5682C294.807 50.8409 295.1 51.2159 295.29 51.6932H295.381C295.589 51.2273 295.92 50.8561 296.375 50.5795C296.83 50.2992 297.371 50.1591 298 50.1591C298.792 50.1591 299.438 50.4072 299.938 50.9034C300.441 51.3996 300.693 52.1477 300.693 53.1477V59H298.994V53.3068C298.994 52.7159 298.833 52.2879 298.511 52.0227C298.189 51.7576 297.805 51.625 297.358 51.625C296.805 51.625 296.375 51.7955 296.068 52.1364C295.761 52.4735 295.608 52.9072 295.608 53.4375V59H293.915V53.1989C293.915 52.7254 293.767 52.3447 293.472 52.0568C293.176 51.7689 292.792 51.625 292.318 51.625C291.996 51.625 291.699 51.7102 291.426 51.8807C291.157 52.0473 290.939 52.2803 290.773 52.5795C290.61 52.8788 290.528 53.2254 290.528 53.6193V59H288.83ZM302.97 62.2727V50.2727H304.629V51.6875H304.771C304.87 51.5057 305.012 51.2955 305.197 51.0568C305.383 50.8182 305.641 50.6098 305.97 50.4318C306.3 50.25 306.735 50.1591 307.277 50.1591C307.982 50.1591 308.61 50.3371 309.163 50.6932C309.716 51.0492 310.15 51.5625 310.464 52.233C310.783 52.9034 310.942 53.7102 310.942 54.6534C310.942 55.5966 310.785 56.4053 310.47 57.0795C310.156 57.75 309.724 58.267 309.175 58.6307C308.625 58.9905 307.999 59.1705 307.294 59.1705C306.764 59.1705 306.33 59.0814 305.993 58.9034C305.66 58.7254 305.398 58.517 305.209 58.2784C305.019 58.0398 304.874 57.8277 304.771 57.642H304.669V62.2727H302.97ZM304.635 54.6364C304.635 55.25 304.724 55.7879 304.902 56.25C305.08 56.7121 305.338 57.0739 305.675 57.3352C306.012 57.5928 306.425 57.7216 306.913 57.7216C307.421 57.7216 307.845 57.5871 308.186 57.3182C308.527 57.0455 308.785 56.6761 308.959 56.2102C309.137 55.7443 309.226 55.2197 309.226 54.6364C309.226 54.0606 309.139 53.5436 308.964 53.0852C308.794 52.6269 308.536 52.2652 308.192 52C307.851 51.7348 307.425 51.6023 306.913 51.6023C306.421 51.6023 306.004 51.7292 305.663 51.983C305.326 52.2367 305.071 52.5909 304.896 53.0455C304.722 53.5 304.635 54.0303 304.635 54.6364ZM314.544 47.3636V59H312.845V47.3636H314.544ZM320.591 59.1761C319.731 59.1761 318.991 58.9924 318.369 58.625C317.752 58.2538 317.275 57.733 316.938 57.0625C316.604 56.3883 316.438 55.5985 316.438 54.6932C316.438 53.7992 316.604 53.0114 316.938 52.3295C317.275 51.6477 317.744 51.1155 318.347 50.733C318.953 50.3504 319.661 50.1591 320.472 50.1591C320.964 50.1591 321.441 50.2405 321.903 50.4034C322.366 50.5663 322.78 50.822 323.148 51.1705C323.515 51.5189 323.805 51.9716 324.017 52.5284C324.229 53.0814 324.335 53.7538 324.335 54.5455V55.1477H317.398V53.875H322.67C322.67 53.428 322.58 53.0322 322.398 52.6875C322.216 52.339 321.96 52.0644 321.631 51.8636C321.305 51.6629 320.922 51.5625 320.483 51.5625C320.006 51.5625 319.589 51.6799 319.233 51.9148C318.881 52.1458 318.608 52.4489 318.415 52.8239C318.225 53.1951 318.131 53.5985 318.131 54.0341V55.0284C318.131 55.6117 318.233 56.108 318.438 56.517C318.646 56.9261 318.936 57.2386 319.307 57.4545C319.678 57.6667 320.112 57.7727 320.608 57.7727C320.93 57.7727 321.223 57.7273 321.489 57.6364C321.754 57.5417 321.983 57.4015 322.176 57.2159C322.369 57.0303 322.517 56.8011 322.619 56.5284L324.227 56.8182C324.098 57.2917 323.867 57.7064 323.534 58.0625C323.205 58.4148 322.79 58.6894 322.29 58.8864C321.794 59.0795 321.227 59.1761 320.591 59.1761ZM330.294 50.2727V51.6364H325.527V50.2727H330.294ZM326.805 48.1818H328.504V56.4375C328.504 56.767 328.554 57.0152 328.652 57.1818C328.75 57.3447 328.877 57.4564 329.033 57.517C329.192 57.5739 329.364 57.6023 329.55 57.6023C329.686 57.6023 329.805 57.5928 329.908 57.5739C330.01 57.5549 330.089 57.5398 330.146 57.5284L330.453 58.9318C330.355 58.9697 330.214 59.0076 330.033 59.0455C329.851 59.0871 329.624 59.1098 329.351 59.1136C328.904 59.1212 328.487 59.0417 328.101 58.875C327.714 58.7083 327.402 58.4508 327.163 58.1023C326.925 57.7538 326.805 57.3163 326.805 56.7898V48.1818ZM335.841 59.1761C334.981 59.1761 334.241 58.9924 333.619 58.625C333.002 58.2538 332.525 57.733 332.188 57.0625C331.854 56.3883 331.688 55.5985 331.688 54.6932C331.688 53.7992 331.854 53.0114 332.188 52.3295C332.525 51.6477 332.994 51.1155 333.597 50.733C334.203 50.3504 334.911 50.1591 335.722 50.1591C336.214 50.1591 336.691 50.2405 337.153 50.4034C337.616 50.5663 338.03 50.822 338.398 51.1705C338.765 51.5189 339.055 51.9716 339.267 52.5284C339.479 53.0814 339.585 53.7538 339.585 54.5455V55.1477H332.648V53.875H337.92C337.92 53.428 337.83 53.0322 337.648 52.6875C337.466 52.339 337.21 52.0644 336.881 51.8636C336.555 51.6629 336.172 51.5625 335.733 51.5625C335.256 51.5625 334.839 51.6799 334.483 51.9148C334.131 52.1458 333.858 52.4489 333.665 52.8239C333.475 53.1951 333.381 53.5985 333.381 54.0341V55.0284C333.381 55.6117 333.483 56.108 333.688 56.517C333.896 56.9261 334.186 57.2386 334.557 57.4545C334.928 57.6667 335.362 57.7727 335.858 57.7727C336.18 57.7727 336.473 57.7273 336.739 57.6364C337.004 57.5417 337.233 57.4015 337.426 57.2159C337.619 57.0303 337.767 56.8011 337.869 56.5284L339.477 56.8182C339.348 57.2917 339.117 57.7064 338.784 58.0625C338.455 58.4148 338.04 58.6894 337.54 58.8864C337.044 59.0795 336.477 59.1761 335.841 59.1761ZM344.737 59.1705C344.033 59.1705 343.404 58.9905 342.851 58.6307C342.302 58.267 341.87 57.75 341.555 57.0795C341.245 56.4053 341.089 55.5966 341.089 54.6534C341.089 53.7102 341.247 52.9034 341.561 52.233C341.879 51.5625 342.315 51.0492 342.868 50.6932C343.421 50.3371 344.048 50.1591 344.749 50.1591C345.29 50.1591 345.726 50.25 346.055 50.4318C346.389 50.6098 346.646 50.8182 346.828 51.0568C347.014 51.2955 347.158 51.5057 347.26 51.6875H347.362V47.3636H349.061V59H347.402V57.642H347.26C347.158 57.8277 347.01 58.0398 346.817 58.2784C346.627 58.517 346.366 58.7254 346.033 58.9034C345.699 59.0814 345.268 59.1705 344.737 59.1705ZM345.112 57.7216C345.601 57.7216 346.014 57.5928 346.351 57.3352C346.692 57.0739 346.949 56.7121 347.124 56.25C347.302 55.7879 347.391 55.25 347.391 54.6364C347.391 54.0303 347.304 53.5 347.129 53.0455C346.955 52.5909 346.699 52.2367 346.362 51.983C346.025 51.7292 345.608 51.6023 345.112 51.6023C344.601 51.6023 344.175 51.7348 343.834 52C343.493 52.2652 343.235 52.6269 343.061 53.0852C342.891 53.5436 342.805 54.0606 342.805 54.6364C342.805 55.2197 342.893 55.7443 343.067 56.2102C343.241 56.6761 343.499 57.0455 343.839 57.3182C344.184 57.5871 344.608 57.7216 345.112 57.7216Z" fill="#616161"/>
<path d="M457.849 35.358C456.042 35.358 454.431 35.0256 453.016 34.3608C451.61 33.696 450.494 32.7798 449.667 31.6122C448.84 30.4446 448.41 29.1065 448.376 27.598H453.745C453.805 28.6122 454.231 29.4347 455.023 30.0653C455.816 30.696 456.758 31.0114 457.849 31.0114C458.718 31.0114 459.485 30.8196 460.15 30.4361C460.823 30.044 461.347 29.5028 461.722 28.8125C462.106 28.1136 462.298 27.3125 462.298 26.4091C462.298 25.4886 462.102 24.679 461.71 23.9801C461.326 23.2812 460.793 22.7358 460.112 22.3438C459.43 21.9517 458.65 21.7514 457.772 21.7429C457.005 21.7429 456.259 21.9006 455.535 22.2159C454.819 22.5312 454.261 22.9616 453.86 23.5071L448.938 22.625L450.178 8.81818H466.184V13.3438H454.742L454.065 19.902H454.218C454.678 19.2543 455.373 18.7173 456.302 18.2912C457.231 17.8651 458.271 17.652 459.421 17.652C460.998 17.652 462.404 18.0227 463.64 18.7642C464.876 19.5057 465.852 20.5241 466.567 21.8196C467.283 23.1065 467.637 24.5895 467.629 26.2685C467.637 28.0327 467.228 29.6009 466.401 30.973C465.583 32.3366 464.437 33.4105 462.962 34.1946C461.496 34.9702 459.792 35.358 457.849 35.358ZM479.313 31.0114V12.9091H483.89V31.0114H479.313ZM472.55 24.2486V19.6719H490.653V24.2486H472.55Z" fill="url(#paint2_linear_1_59)"/>
<path d="M417.778 59V47.3636H419.534V52.4205H425.335V47.3636H427.097V59H425.335V53.9261H419.534V59H417.778ZM432.057 59.1932C431.504 59.1932 431.004 59.0909 430.557 58.8864C430.11 58.678 429.756 58.3769 429.494 57.983C429.237 57.589 429.108 57.1061 429.108 56.5341C429.108 56.0417 429.203 55.6364 429.392 55.3182C429.581 55 429.837 54.7481 430.159 54.5625C430.481 54.3769 430.841 54.2367 431.239 54.142C431.636 54.0473 432.042 53.9754 432.455 53.9261C432.977 53.8655 433.402 53.8163 433.727 53.7784C434.053 53.7367 434.29 53.6705 434.438 53.5795C434.585 53.4886 434.659 53.3409 434.659 53.1364V53.0966C434.659 52.6004 434.519 52.2159 434.239 51.9432C433.962 51.6705 433.549 51.5341 433 51.5341C432.428 51.5341 431.977 51.661 431.648 51.9148C431.322 52.1648 431.097 52.4432 430.972 52.75L429.375 52.3864C429.564 51.8561 429.841 51.428 430.205 51.1023C430.572 50.7727 430.994 50.5341 431.472 50.3864C431.949 50.2348 432.451 50.1591 432.977 50.1591C433.326 50.1591 433.695 50.2008 434.085 50.2841C434.479 50.3636 434.847 50.5114 435.188 50.7273C435.532 50.9432 435.814 51.2519 436.034 51.6534C436.254 52.0511 436.364 52.5682 436.364 53.2045V59H434.705V57.8068H434.636C434.527 58.0265 434.362 58.2424 434.142 58.4545C433.922 58.6667 433.64 58.8428 433.295 58.983C432.951 59.1231 432.538 59.1932 432.057 59.1932ZM432.426 57.8295C432.896 57.8295 433.297 57.7367 433.631 57.5511C433.968 57.3655 434.223 57.1231 434.398 56.8239C434.576 56.5208 434.665 56.197 434.665 55.8523V54.7273C434.604 54.7879 434.487 54.8447 434.312 54.8977C434.142 54.947 433.947 54.9905 433.727 55.0284C433.508 55.0625 433.294 55.0947 433.085 55.125C432.877 55.1515 432.703 55.1742 432.562 55.1932C432.233 55.2348 431.932 55.3049 431.659 55.4034C431.39 55.5019 431.174 55.6439 431.011 55.8295C430.852 56.0114 430.773 56.2538 430.773 56.5568C430.773 56.9773 430.928 57.2955 431.239 57.5114C431.549 57.7235 431.945 57.8295 432.426 57.8295ZM438.626 62.2727V50.2727H440.286V51.6875H440.428C440.526 51.5057 440.668 51.2955 440.854 51.0568C441.039 50.8182 441.297 50.6098 441.626 50.4318C441.956 50.25 442.392 50.1591 442.933 50.1591C443.638 50.1591 444.267 50.3371 444.82 50.6932C445.373 51.0492 445.806 51.5625 446.121 52.233C446.439 52.9034 446.598 53.7102 446.598 54.6534C446.598 55.5966 446.441 56.4053 446.126 57.0795C445.812 57.75 445.38 58.267 444.831 58.6307C444.282 58.9905 443.655 59.1705 442.95 59.1705C442.42 59.1705 441.986 59.0814 441.649 58.9034C441.316 58.7254 441.054 58.517 440.865 58.2784C440.676 58.0398 440.53 57.8277 440.428 57.642H440.325V62.2727H438.626ZM440.291 54.6364C440.291 55.25 440.38 55.7879 440.558 56.25C440.736 56.7121 440.994 57.0739 441.331 57.3352C441.668 57.5928 442.081 57.7216 442.57 57.7216C443.077 57.7216 443.501 57.5871 443.842 57.3182C444.183 57.0455 444.441 56.6761 444.615 56.2102C444.793 55.7443 444.882 55.2197 444.882 54.6364C444.882 54.0606 444.795 53.5436 444.621 53.0852C444.45 52.6269 444.193 52.2652 443.848 52C443.507 51.7348 443.081 51.6023 442.57 51.6023C442.077 51.6023 441.661 51.7292 441.32 51.983C440.982 52.2367 440.727 52.5909 440.553 53.0455C440.378 53.5 440.291 54.0303 440.291 54.6364ZM448.501 62.2727V50.2727H450.161V51.6875H450.303C450.401 51.5057 450.543 51.2955 450.729 51.0568C450.914 50.8182 451.172 50.6098 451.501 50.4318C451.831 50.25 452.267 50.1591 452.808 50.1591C453.513 50.1591 454.142 50.3371 454.695 50.6932C455.248 51.0492 455.681 51.5625 455.996 52.233C456.314 52.9034 456.473 53.7102 456.473 54.6534C456.473 55.5966 456.316 56.4053 456.001 57.0795C455.687 57.75 455.255 58.267 454.706 58.6307C454.157 58.9905 453.53 59.1705 452.825 59.1705C452.295 59.1705 451.861 59.0814 451.524 58.9034C451.191 58.7254 450.929 58.517 450.74 58.2784C450.551 58.0398 450.405 57.8277 450.303 57.642H450.2V62.2727H448.501ZM450.166 54.6364C450.166 55.25 450.255 55.7879 450.433 56.25C450.611 56.7121 450.869 57.0739 451.206 57.3352C451.543 57.5928 451.956 57.7216 452.445 57.7216C452.952 57.7216 453.376 57.5871 453.717 57.3182C454.058 57.0455 454.316 56.6761 454.49 56.2102C454.668 55.7443 454.757 55.2197 454.757 54.6364C454.757 54.0606 454.67 53.5436 454.496 53.0852C454.325 52.6269 454.068 52.2652 453.723 52C453.382 51.7348 452.956 51.6023 452.445 51.6023C451.952 51.6023 451.536 51.7292 451.195 51.983C450.857 52.2367 450.602 52.5909 450.428 53.0455C450.253 53.5 450.166 54.0303 450.166 54.6364ZM459.153 62.2727C458.9 62.2727 458.669 62.2519 458.46 62.2102C458.252 62.1723 458.097 62.1307 457.994 62.0852L458.403 60.6932C458.714 60.7765 458.991 60.8125 459.233 60.8011C459.475 60.7898 459.689 60.6989 459.875 60.5284C460.064 60.358 460.231 60.0795 460.375 59.6932L460.585 59.1136L457.392 50.2727H459.21L461.42 57.0455H461.511L463.722 50.2727H465.545L461.949 60.1648C461.782 60.6193 461.57 61.0038 461.312 61.3182C461.055 61.6364 460.748 61.875 460.392 62.0341C460.036 62.1932 459.623 62.2727 459.153 62.2727ZM481.178 51.1477H479.405C479.337 50.7689 479.21 50.4356 479.024 50.1477C478.839 49.8598 478.611 49.6155 478.342 49.4148C478.073 49.214 477.772 49.0625 477.439 48.9602C477.109 48.858 476.759 48.8068 476.388 48.8068C475.717 48.8068 475.117 48.9754 474.587 49.3125C474.06 49.6496 473.643 50.1439 473.337 50.7955C473.034 51.447 472.882 52.2424 472.882 53.1818C472.882 54.1288 473.034 54.928 473.337 55.5795C473.643 56.2311 474.062 56.7235 474.592 57.0568C475.123 57.3902 475.719 57.5568 476.382 57.5568C476.75 57.5568 477.098 57.5076 477.428 57.4091C477.761 57.3068 478.062 57.1572 478.331 56.9602C478.6 56.7633 478.827 56.5227 479.013 56.2386C479.202 55.9508 479.333 55.6212 479.405 55.25L481.178 55.2557C481.083 55.8277 480.899 56.3542 480.626 56.8352C480.357 57.3125 480.011 57.7254 479.587 58.0739C479.166 58.4186 478.685 58.6856 478.143 58.875C477.602 59.0644 477.011 59.1591 476.371 59.1591C475.363 59.1591 474.465 58.9205 473.678 58.4432C472.89 57.9621 472.268 57.2746 471.814 56.3807C471.363 55.4867 471.138 54.4205 471.138 53.1818C471.138 51.9394 471.365 50.8731 471.82 49.983C472.274 49.089 472.895 48.4034 473.683 47.9261C474.471 47.4451 475.367 47.2045 476.371 47.2045C476.988 47.2045 477.564 47.2936 478.098 47.4716C478.636 47.6458 479.119 47.9034 479.547 48.2443C479.975 48.5814 480.329 48.9943 480.609 49.483C480.89 49.9678 481.079 50.5227 481.178 51.1477ZM484.841 47.3636V59H483.142V47.3636H484.841ZM487.126 59V50.2727H488.825V59H487.126ZM487.984 48.9261C487.689 48.9261 487.435 48.8277 487.223 48.6307C487.015 48.4299 486.911 48.1913 486.911 47.9148C486.911 47.6345 487.015 47.3958 487.223 47.1989C487.435 46.9981 487.689 46.8977 487.984 46.8977C488.28 46.8977 488.532 46.9981 488.74 47.1989C488.952 47.3958 489.058 47.6345 489.058 47.9148C489.058 48.1913 488.952 48.4299 488.74 48.6307C488.532 48.8277 488.28 48.9261 487.984 48.9261ZM494.872 59.1761C494.012 59.1761 493.272 58.9924 492.651 58.625C492.033 58.2538 491.556 57.733 491.219 57.0625C490.885 56.3883 490.719 55.5985 490.719 54.6932C490.719 53.7992 490.885 53.0114 491.219 52.3295C491.556 51.6477 492.026 51.1155 492.628 50.733C493.234 50.3504 493.942 50.1591 494.753 50.1591C495.245 50.1591 495.723 50.2405 496.185 50.4034C496.647 50.5663 497.062 50.822 497.429 51.1705C497.796 51.5189 498.086 51.9716 498.298 52.5284C498.51 53.0814 498.616 53.7538 498.616 54.5455V55.1477H491.679V53.875H496.952C496.952 53.428 496.861 53.0322 496.679 52.6875C496.497 52.339 496.241 52.0644 495.912 51.8636C495.586 51.6629 495.204 51.5625 494.764 51.5625C494.287 51.5625 493.87 51.6799 493.514 51.9148C493.162 52.1458 492.889 52.4489 492.696 52.8239C492.507 53.1951 492.412 53.5985 492.412 54.0341V55.0284C492.412 55.6117 492.514 56.108 492.719 56.517C492.927 56.9261 493.217 57.2386 493.588 57.4545C493.959 57.6667 494.393 57.7727 494.889 57.7727C495.211 57.7727 495.505 57.7273 495.77 57.6364C496.035 57.5417 496.264 57.4015 496.457 57.2159C496.651 57.0303 496.798 56.8011 496.901 56.5284L498.509 56.8182C498.38 57.2917 498.149 57.7064 497.815 58.0625C497.486 58.4148 497.071 58.6894 496.571 58.8864C496.075 59.0795 495.509 59.1761 494.872 59.1761ZM502.2 53.8182V59H500.501V50.2727H502.132V51.6932H502.24C502.441 51.2311 502.755 50.8598 503.183 50.5795C503.615 50.2992 504.159 50.1591 504.814 50.1591C505.409 50.1591 505.929 50.2841 506.376 50.5341C506.823 50.7803 507.17 51.1477 507.416 51.6364C507.662 52.125 507.786 52.7292 507.786 53.4489V59H506.087V53.6534C506.087 53.0208 505.922 52.5265 505.592 52.1705C505.263 51.8106 504.81 51.6307 504.234 51.6307C503.84 51.6307 503.49 51.7159 503.183 51.8864C502.88 52.0568 502.64 52.3068 502.462 52.6364C502.287 52.9621 502.2 53.3561 502.2 53.8182ZM514.138 50.2727V51.6364H509.371V50.2727H514.138ZM510.649 48.1818H512.348V56.4375C512.348 56.767 512.397 57.0152 512.496 57.1818C512.594 57.3447 512.721 57.4564 512.876 57.517C513.036 57.5739 513.208 57.6023 513.393 57.6023C513.53 57.6023 513.649 57.5928 513.751 57.5739C513.854 57.5549 513.933 57.5398 513.99 57.5284L514.297 58.9318C514.198 58.9697 514.058 59.0076 513.876 59.0455C513.695 59.0871 513.467 59.1098 513.195 59.1136C512.748 59.1212 512.331 59.0417 511.945 58.875C511.558 58.7083 511.246 58.4508 511.007 58.1023C510.768 57.7538 510.649 57.3163 510.649 56.7898V48.1818ZM522.416 52.4034L520.876 52.6761C520.812 52.4792 520.71 52.2917 520.57 52.1136C520.433 51.9356 520.248 51.7898 520.013 51.6761C519.778 51.5625 519.484 51.5057 519.132 51.5057C518.651 51.5057 518.25 51.6136 517.928 51.8295C517.606 52.0417 517.445 52.3163 517.445 52.6534C517.445 52.9451 517.553 53.1799 517.768 53.358C517.984 53.536 518.333 53.6818 518.814 53.7955L520.2 54.1136C521.003 54.2992 521.602 54.5852 521.996 54.9716C522.39 55.358 522.587 55.8598 522.587 56.4773C522.587 57 522.435 57.4659 522.132 57.875C521.833 58.2803 521.414 58.5985 520.876 58.8295C520.342 59.0606 519.723 59.1761 519.018 59.1761C518.041 59.1761 517.244 58.9678 516.626 58.5511C516.009 58.1307 515.63 57.5341 515.49 56.7614L517.132 56.5114C517.234 56.9394 517.445 57.2633 517.763 57.483C518.081 57.6989 518.496 57.8068 519.007 57.8068C519.564 57.8068 520.009 57.6913 520.342 57.4602C520.676 57.2254 520.842 56.9394 520.842 56.6023C520.842 56.3295 520.74 56.1004 520.536 55.9148C520.335 55.7292 520.026 55.589 519.609 55.4943L518.132 55.1705C517.318 54.9848 516.715 54.6894 516.325 54.2841C515.939 53.8788 515.746 53.3655 515.746 52.7443C515.746 52.2292 515.89 51.7784 516.178 51.392C516.465 51.0057 516.863 50.7045 517.371 50.4886C517.878 50.2689 518.46 50.1591 519.115 50.1591C520.058 50.1591 520.801 50.3636 521.342 50.7727C521.884 51.178 522.242 51.7216 522.416 52.4034Z" fill="#616161"/>
<defs>
<linearGradient id="paint0_linear_1_59" x1="0.5" y1="22" x2="133.5" y2="22" gradientUnits="userSpaceOnUse">
<stop stop-color="#8052F5"/>
<stop offset="1" stop-color="#EE82D6"/>
</linearGradient>
<linearGradient id="paint1_linear_1_59" x1="199.5" y1="22" x2="350.5" y2="22" gradientUnits="userSpaceOnUse">
<stop stop-color="#8052F5"/>
<stop offset="1" stop-color="#EE82D6"/>
</linearGradient>
<linearGradient id="paint2_linear_1_59" x1="416.5" y1="22" x2="523.5" y2="22" gradientUnits="userSpaceOnUse">
<stop stop-color="#8052F5"/>
<stop offset="1" stop-color="#EE82D6"/>
</linearGradient>
</defs>
</svg>
