<svg width="552" height="83" viewBox="0 0 552 83" fill="none" xmlns="http://www.w3.org/2000/svg">
<path d="M0.436079 67V4.45454H13.6598V30.2607H40.5043V4.45454H53.6974V67H40.5043V41.1634H13.6598V67H0.436079ZM64.3558 67V20.0909H77.3658V67H64.3558ZM70.8913 14.044C68.9571 14.044 67.2978 13.4027 65.9134 12.12C64.5492 10.817 63.8672 9.25947 63.8672 7.44744C63.8672 5.65577 64.5492 4.11861 65.9134 2.83594C67.2978 1.53291 68.9571 0.881389 70.8913 0.881389C72.8255 0.881389 74.4747 1.53291 75.8388 2.83594C77.2232 4.11861 77.9155 5.65577 77.9155 7.44744C77.9155 9.25947 77.2232 10.817 75.8388 12.12C74.4747 13.4027 72.8255 14.044 70.8913 14.044ZM101.927 58.4489L101.591 61.8082C101.327 64.4957 100.818 67.1731 100.064 69.8402C99.3315 72.5277 98.5578 74.9607 97.7434 77.1392C96.9494 79.3177 96.3081 81.0279 95.8194 82.2699H87.3904C87.6958 81.0687 88.1132 79.389 88.6426 77.2308C89.1719 75.093 89.6708 72.6906 90.139 70.0234C90.6073 67.3563 90.9025 64.6383 91.0247 61.8693L91.1774 58.4489H101.927ZM144.256 4.45454V67H131.032V4.45454H144.256ZM165.794 4.45454V11.0511C165.794 12.9242 165.427 14.8381 164.694 16.7926C163.982 18.7268 163.025 20.5592 161.824 22.2898C160.622 24 159.309 25.4557 157.884 26.657L152.142 23.267C153.16 21.6586 154.056 19.8771 154.83 17.9226C155.624 15.968 156.021 13.6979 156.021 11.1122V4.45454H165.794ZM172.612 67V20.0909H185.011V28.3672H185.561C186.538 25.6186 188.167 23.4503 190.447 21.8622C192.727 20.2741 195.455 19.4801 198.632 19.4801C201.848 19.4801 204.587 20.2843 206.847 21.8928C209.107 23.4808 210.613 25.639 211.367 28.3672H211.855C212.812 25.6797 214.543 23.5317 217.047 21.9233C219.572 20.2945 222.554 19.4801 225.995 19.4801C230.373 19.4801 233.925 20.8748 236.654 23.6641C239.402 26.433 240.776 30.3625 240.776 35.4524V67H227.797V38.0178C227.797 35.4117 227.105 33.4571 225.72 32.1541C224.336 30.8511 222.605 30.1996 220.529 30.1996C218.167 30.1996 216.324 30.9529 215.001 32.4595C213.677 33.9458 213.016 35.9105 213.016 38.3537V67H200.403V37.7429C200.403 35.4422 199.741 33.6098 198.418 32.2457C197.115 30.8816 195.394 30.1996 193.257 30.1996C191.811 30.1996 190.508 30.5661 189.347 31.299C188.207 32.0116 187.301 33.0194 186.629 34.3224C185.958 35.6051 185.622 37.1117 185.622 38.8423V67H172.612ZM544.12 67.794C542.105 67.794 540.374 67.0814 538.929 65.6562C537.503 64.2107 536.791 62.4801 536.791 60.4645C536.791 58.4692 537.503 56.759 538.929 55.3338C540.374 53.9086 542.105 53.196 544.12 53.196C546.075 53.196 547.785 53.9086 549.251 55.3338C550.717 56.759 551.45 58.4692 551.45 60.4645C551.45 61.8082 551.104 63.04 550.412 64.1598C549.74 65.2592 548.854 66.1449 547.755 66.8168C546.655 67.4683 545.444 67.794 544.12 67.794Z" fill="black"/>
<path d="M293.374 67H271.202V4.45454H293.557C299.848 4.45454 305.264 5.70667 309.804 8.21094C314.344 10.6948 317.836 14.268 320.279 18.9304C322.743 23.5928 323.974 29.1714 323.974 35.6662C323.974 42.1813 322.743 47.7803 320.279 52.4631C317.836 57.1458 314.324 60.7393 309.743 63.2436C305.182 65.7479 299.726 67 293.374 67ZM284.425 55.6697H292.824C296.733 55.6697 300.021 54.9775 302.688 53.593C305.376 52.1882 307.391 50.0199 308.735 47.0881C310.099 44.1359 310.781 40.3286 310.781 35.6662C310.781 31.0445 310.099 27.2678 308.735 24.3359C307.391 21.4041 305.386 19.246 302.719 17.8615C300.052 16.477 296.763 15.7848 292.854 15.7848H284.425V55.6697ZM346.902 67.8857C343.909 67.8857 341.242 67.3665 338.901 66.3281C336.559 65.2694 334.707 63.7119 333.343 61.6555C331.999 59.5788 331.327 56.9931 331.327 53.8984C331.327 51.2924 331.805 49.1037 332.762 47.3324C333.719 45.5611 335.022 44.1359 336.671 43.0568C338.32 41.9777 340.194 41.1634 342.291 40.6136C344.408 40.0639 346.627 39.6771 348.948 39.4531C351.677 39.1681 353.875 38.9034 355.545 38.6591C357.214 38.3944 358.426 38.0076 359.179 37.4986C359.932 36.9896 360.309 36.2363 360.309 35.2386V35.0554C360.309 33.1212 359.698 31.6248 358.477 30.566C357.276 29.5073 355.565 28.978 353.346 28.978C351.005 28.978 349.142 29.4972 347.757 30.5355C346.373 31.5535 345.457 32.8362 345.009 34.3835L332.976 33.4062C333.587 30.5559 334.788 28.0923 336.58 26.0156C338.371 23.9186 340.682 22.3101 343.512 21.1903C346.363 20.0502 349.661 19.4801 353.407 19.4801C356.013 19.4801 358.507 19.7855 360.889 20.3963C363.292 21.0071 365.419 21.9538 367.272 23.2365C369.145 24.5192 370.621 26.1683 371.7 28.1839C372.78 30.1792 373.319 32.5715 373.319 35.3608V67H360.981V60.495H360.615C359.861 61.9609 358.853 63.2538 357.591 64.3736C356.329 65.473 354.812 66.3383 353.041 66.9695C351.269 67.5803 349.223 67.8857 346.902 67.8857ZM350.628 58.907C352.542 58.907 354.232 58.5303 355.698 57.777C357.164 57.0033 358.314 55.965 359.149 54.6619C359.983 53.3589 360.401 51.8828 360.401 50.2337V45.2557C359.994 45.5204 359.434 45.7647 358.721 45.9886C358.029 46.1922 357.245 46.3857 356.369 46.5689C355.494 46.7318 354.619 46.8845 353.743 47.027C352.868 47.1491 352.074 47.2611 351.361 47.3629C349.834 47.5869 348.5 47.9432 347.36 48.4318C346.22 48.9205 345.334 49.5821 344.703 50.4169C344.072 51.2313 343.757 52.2493 343.757 53.4709C343.757 55.2422 344.398 56.5961 345.681 57.5327C346.984 58.4489 348.633 58.907 350.628 58.907ZM396.422 39.8807V67H383.412V20.0909H395.812V28.3672H396.361C397.4 25.639 399.14 23.4808 401.584 21.8928C404.027 20.2843 406.989 19.4801 410.471 19.4801C413.728 19.4801 416.568 20.1927 418.991 21.6179C421.414 23.0431 423.297 25.0791 424.641 27.7259C425.985 30.3523 426.657 33.4877 426.657 37.1321V67H413.647V39.4531C413.667 36.5824 412.934 34.3428 411.448 32.7344C409.962 31.1056 407.916 30.2912 405.309 30.2912C403.559 30.2912 402.011 30.6678 400.667 31.4212C399.344 32.1745 398.306 33.2739 397.552 34.7195C396.819 36.1446 396.443 37.8651 396.422 39.8807ZM436.911 67V20.0909H449.92V67H436.911ZM443.446 14.044C441.512 14.044 439.853 13.4027 438.468 12.12C437.104 10.817 436.422 9.25947 436.422 7.44744C436.422 5.65577 437.104 4.11861 438.468 2.83594C439.853 1.53291 441.512 0.881389 443.446 0.881389C445.38 0.881389 447.029 1.53291 448.393 2.83594C449.778 4.11861 450.47 5.65577 450.47 7.44744C450.47 9.25947 449.778 10.817 448.393 12.12C447.029 13.4027 445.38 14.044 443.446 14.044ZM473.352 4.45454V67H460.342V4.45454H473.352ZM504.968 67.9162C500.225 67.9162 496.122 66.9084 492.661 64.8928C489.22 62.8568 486.563 60.0268 484.69 56.4027C482.817 52.7583 481.88 48.5336 481.88 43.7287C481.88 38.883 482.817 34.6482 484.69 31.0241C486.563 27.3797 489.22 24.5497 492.661 22.5341C496.122 20.4981 500.225 19.4801 504.968 19.4801C509.712 19.4801 513.805 20.4981 517.245 22.5341C520.707 24.5497 523.374 27.3797 525.247 31.0241C527.12 34.6482 528.056 38.883 528.056 43.7287C528.056 48.5336 527.12 52.7583 525.247 56.4027C523.374 60.0268 520.707 62.8568 517.245 64.8928C513.805 66.9084 509.712 67.9162 504.968 67.9162ZM505.029 57.8381C507.188 57.8381 508.989 57.2273 510.435 56.0057C511.881 54.7637 512.97 53.0739 513.703 50.9361C514.456 48.7983 514.833 46.3653 514.833 43.6371C514.833 40.9089 514.456 38.4759 513.703 36.3381C512.97 34.2003 511.881 32.5104 510.435 31.2685C508.989 30.0265 507.188 29.4055 505.029 29.4055C502.851 29.4055 501.019 30.0265 499.532 31.2685C498.066 32.5104 496.957 34.2003 496.203 36.3381C495.471 38.4759 495.104 40.9089 495.104 43.6371C495.104 46.3653 495.471 48.7983 496.203 50.9361C496.957 53.0739 498.066 54.7637 499.532 56.0057C501.019 57.2273 502.851 57.8381 505.029 57.8381Z" fill="url(#paint0_linear_1_3)"/>
<defs>
<linearGradient id="paint0_linear_1_3" x1="-5" y1="36" x2="570" y2="36" gradientUnits="userSpaceOnUse">
<stop stop-color="#8052F5"/>
<stop offset="1" stop-color="#EE82D6"/>
</linearGradient>
</defs>
</svg>
