<svg width="24" height="24" viewBox="0 0 24 24" fill="none" xmlns="http://www.w3.org/2000/svg">
<path opacity="0.5" fill-rule="evenodd" clip-rule="evenodd" d="M22 11.9999C22 17.5229 17.523 21.9999 12 21.9999C10.8691 22.0011 9.74615 21.8104 8.67901 21.4359C8.22985 20.3461 7.99915 19.1787 8.00001 17.9999C7.99726 15.8661 8.7553 13.8011 10.138 12.1759C10.7352 13.0467 11.5355 13.759 12.4698 14.251C13.404 14.7431 14.4441 15.0001 15.5 14.9999C16.6201 15.0001 17.7212 14.7108 18.6966 14.1601C19.672 13.6094 20.4885 12.8161 21.067 11.8569C21.307 11.4609 22 11.5369 22 11.9999Z" fill="#1F2937"/>
<path d="M2 12C2 16.359 4.789 20.066 8.679 21.435C8.22997 20.3455 7.99927 19.1784 8 18C8 15.779 8.805 13.746 10.138 12.176C9.39462 11.0944 8.99773 9.81239 9 8.5C8.99983 7.37991 9.28911 6.27877 9.83979 5.30339C10.3905 4.32801 11.1839 3.51149 12.143 2.933C12.54 2.693 12.463 2 12 2C6.477 2 2 6.477 2 12Z" fill="#1F2937"/>
</svg>
