<svg width="24" height="24" viewBox="0 0 24 24" fill="none" xmlns="http://www.w3.org/2000/svg">
<path d="M11.9993 18.5C12.3721 18.5 12.7317 18.6389 13.0077 18.8896C13.2837 19.1403 13.4565 19.4848 13.4923 19.856L13.4993 20V21C13.4991 21.3852 13.3507 21.7556 13.0849 22.0344C12.819 22.3132 12.4561 22.479 12.0713 22.4975C11.6866 22.516 11.3094 22.3858 11.0181 22.1338C10.7267 21.8818 10.5434 21.5274 10.5063 21.144L10.4993 21V20C10.4993 19.6022 10.6573 19.2206 10.9386 18.9393C11.2199 18.658 11.6014 18.5 11.9993 18.5ZM11.9993 1.5C12.3721 1.50002 12.7317 1.63892 13.0077 1.88962C13.2837 2.14032 13.4565 2.48484 13.4923 2.856L13.4993 3V4C13.4991 4.38522 13.3507 4.75559 13.0849 5.03439C12.819 5.31318 12.4561 5.47901 12.0713 5.49752C11.6866 5.51604 11.3094 5.38581 11.0181 5.13382C10.7267 4.88184 10.5434 4.52742 10.5063 4.144L10.4993 4V3C10.4993 2.60218 10.6573 2.22064 10.9386 1.93934C11.2199 1.65804 11.6014 1.5 11.9993 1.5ZM17.3023 4.575C17.5735 4.29975 17.9405 4.1398 18.3268 4.12848C18.713 4.11717 19.0888 4.25536 19.3757 4.51427C19.6625 4.77317 19.8384 5.1328 19.8667 5.5182C19.8949 5.90361 19.7733 6.28504 19.5273 6.583L19.4243 6.697L18.7173 7.404C18.446 7.67925 18.079 7.8392 17.6928 7.85052C17.3065 7.86183 16.9307 7.72364 16.6439 7.46473C16.357 7.20583 16.1811 6.8462 16.1528 6.4608C16.1246 6.07539 16.2462 5.69396 16.4923 5.396L16.5953 5.282L17.3023 4.575ZM4.57426 4.575C4.83681 4.31227 5.1875 4.15629 5.55845 4.13726C5.92939 4.11823 6.2942 4.23751 6.58226 4.472L6.69626 4.575L7.40326 5.282C7.67851 5.55324 7.83846 5.92024 7.84978 6.30651C7.86109 6.69278 7.7229 7.06851 7.46399 7.35539C7.20509 7.64227 6.84546 7.81817 6.46005 7.84641C6.07465 7.87466 5.69322 7.75307 5.39526 7.507L5.28126 7.404L4.57426 6.697C4.43487 6.5577 4.32429 6.3923 4.24885 6.21025C4.17341 6.0282 4.13458 5.83306 4.13458 5.636C4.13458 5.43894 4.17341 5.2438 4.24885 5.06175C4.32429 4.8797 4.43487 4.7143 4.57426 4.575ZM20.9993 10.5C21.3845 10.5002 21.7549 10.6486 22.0336 10.9144C22.3124 11.1802 22.4783 11.5431 22.4968 11.9279C22.5153 12.3127 22.3851 12.6898 22.1331 12.9812C21.8811 13.2726 21.5267 13.4558 21.1433 13.493L20.9993 13.5H19.9993C19.614 13.4998 19.2437 13.3514 18.9649 13.0856C18.6861 12.8198 18.5202 12.4569 18.5017 12.0721C18.4832 11.6873 18.6134 11.3102 18.8654 11.0188C19.1174 10.7274 19.4718 10.5442 19.8553 10.507L19.9993 10.5H20.9993ZM3.99926 10.5C4.38448 10.5002 4.75485 10.6486 5.03365 10.9144C5.31244 11.1802 5.47827 11.5431 5.49678 11.9279C5.5153 12.3127 5.38507 12.6898 5.13308 12.9812C4.8811 13.2726 4.52668 13.4558 4.14326 13.493L3.99926 13.5H2.99926C2.61404 13.4998 2.24366 13.3514 1.96487 13.0856C1.68608 12.8198 1.52025 12.4569 1.50173 12.0721C1.48322 11.6873 1.61345 11.3102 1.86543 11.0188C2.11742 10.7274 2.47184 10.5442 2.85526 10.507L2.99926 10.5H3.99926Z" fill="#FBD61D"/>
<path opacity="0.3" d="M11.9993 6C16.6183 6 19.5053 11 17.1953 15C16.6687 15.9121 15.9113 16.6695 14.9992 17.1961C14.0872 17.7227 13.0525 18 11.9993 18C7.38033 18 4.49333 13 6.80333 9C7.32993 8.08791 8.08733 7.33049 8.99942 6.80389C9.9115 6.27728 10.9461 6.00003 11.9993 6Z" fill="#FBD61D"/>
<path d="M5.28233 16.5961C5.55357 16.3208 5.92057 16.1609 6.30684 16.1496C6.69311 16.1383 7.06884 16.2765 7.35573 16.5354C7.64261 16.7943 7.8185 17.1539 7.84675 17.5393C7.87499 17.9247 7.75341 18.3061 7.50733 18.6041L7.40433 18.7181L6.69733 19.4251C6.4261 19.7003 6.0591 19.8603 5.67283 19.8716C5.28656 19.8829 4.91082 19.7447 4.62394 19.4858C4.33706 19.2269 4.16117 18.8673 4.13292 18.4819C4.10468 18.0965 4.22626 17.715 4.47233 17.4171L4.57533 17.3031L5.28233 16.5961ZM16.5963 16.5961C16.8589 16.3334 17.2096 16.1774 17.5805 16.1583C17.9515 16.1393 18.3163 16.2586 18.6043 16.4931L18.7183 16.5961L19.4253 17.3031C19.7006 17.5743 19.8605 17.9413 19.8719 18.3276C19.8832 18.7139 19.745 19.0896 19.4861 19.3765C19.2272 19.6634 18.8675 19.8393 18.4821 19.8675C18.0967 19.8957 17.7153 19.7742 17.4173 19.5281L17.3033 19.4251L16.5963 18.7181C16.4569 18.5788 16.3464 18.4134 16.2709 18.2313C16.1955 18.0493 16.1567 17.8542 16.1567 17.6571C16.1567 17.46 16.1955 17.2649 16.2709 17.0828C16.3464 16.9008 16.4569 16.7354 16.5963 16.5961Z" fill="#FBD61D"/>
</svg>
