<svg width="32" height="32" viewBox="0 0 32 32" fill="none" xmlns="http://www.w3.org/2000/svg">
<g clip-path="url(#clip0_1_13)">
<path d="M32 16.4002C32 19.9746 30.9824 23.189 28.9472 26.0434C26.912 28.8978 24.2837 30.8727 21.0624 31.9682C20.6869 32.0407 20.4128 31.9911 20.24 31.8194C20.1548 31.7364 20.0877 31.6367 20.0428 31.5266C19.9979 31.4164 19.9763 31.2982 19.9792 31.1794V26.6722C19.9792 25.2908 19.6181 24.2802 18.896 23.6402C19.6166 23.5661 20.3307 23.4377 21.032 23.2562C21.6624 23.0855 22.3147 22.8082 22.9888 22.4242C23.6355 22.0605 24.2081 21.5785 24.6768 21.0034C25.128 20.4402 25.496 19.6924 25.7808 18.7602C26.0656 17.8279 26.208 16.757 26.208 15.5474C26.208 13.8236 25.6597 12.357 24.5632 11.1474C25.0752 9.85242 25.0192 8.40015 24.3952 6.79055C24.0069 6.66255 23.4448 6.74095 22.7088 7.02575C22.0414 7.27708 21.3996 7.59158 20.792 7.96495L20 8.47695C18.6993 8.10546 17.3527 7.91909 16 7.92335C14.6472 7.91961 13.3006 8.10651 12 8.47855C11.7104 8.27848 11.4154 8.08641 11.1152 7.90255C10.7472 7.67429 10.1669 7.40015 9.3744 7.08015C8.584 6.76015 7.98667 6.66415 7.5824 6.79215C6.97227 8.39962 6.92427 9.85135 7.4384 11.1474C6.33973 12.357 5.7904 13.8236 5.7904 15.5474C5.7904 16.757 5.93333 17.8247 6.2192 18.7506C6.504 19.6754 6.86827 20.4226 7.312 20.9922C7.77066 21.5753 8.34063 22.0615 8.9888 22.4226C9.66293 22.8066 10.3157 23.0839 10.9472 23.2546C11.5797 23.4274 12.2917 23.5559 13.0832 23.6402C12.5285 24.1522 12.1883 24.8855 12.0624 25.8402C11.7643 25.9853 11.4494 26.0928 11.1248 26.1602C10.7338 26.2368 10.336 26.2728 9.9376 26.2674C9.47893 26.2674 9.024 26.1143 8.5728 25.8082C8.1216 25.501 7.736 25.0562 7.416 24.4738C7.16749 24.0322 6.82235 23.6526 6.4064 23.3634C5.9968 23.0786 5.6528 22.9079 5.3744 22.8514L4.9584 22.7874C4.6672 22.7874 4.4656 22.8194 4.3536 22.8834C4.2416 22.9474 4.20693 23.029 4.2496 23.1282C4.29579 23.2372 4.35898 23.3381 4.4368 23.4274C4.51716 23.523 4.60845 23.6089 4.7088 23.6834L4.8528 23.789C5.15893 23.933 5.46133 24.2039 5.76 24.6018C6.05867 25.0007 6.27733 25.3634 6.416 25.6898L6.624 26.181C6.80533 26.7218 7.11147 27.1596 7.5424 27.4946C7.97333 27.8306 8.4384 28.0439 8.9376 28.1346C9.4368 28.2274 9.91947 28.2775 10.3856 28.285C10.8507 28.2914 11.2363 28.2663 11.5424 28.2098L12.0208 28.125C12.0208 28.6658 12.0245 29.2994 12.032 30.0258L12.0416 31.1778C12.0416 31.4338 11.9509 31.6471 11.7696 31.8178C11.5904 31.9906 11.3131 32.0407 10.9376 31.9682C7.7152 30.8716 5.08693 28.8967 3.0528 26.0434C1.0176 23.1879 0 19.9735 0 16.4002C0 13.4242 0.7152 10.6802 2.1456 8.16815C3.5314 5.70357 5.53959 3.64572 7.9696 2.20015C10.3928 0.741451 13.1717 -0.0198552 16 0.000151535C18.8288 -0.0201503 21.6083 0.741167 24.032 2.20015C26.4614 3.64594 28.469 5.70377 29.8544 8.16815C31.2848 10.6812 32 13.4252 32 16.4002Z" fill="black"/>
</g>
<defs>
<clipPath id="clip0_1_13">
<rect width="32" height="32" fill="white"/>
</clipPath>
</defs>
</svg>
