<svg width="32" height="32" viewBox="0 0 32 32" fill="none" xmlns="http://www.w3.org/2000/svg">
<path d="M19.484 7.93701V13.414L21.4 14.619C21.4692 14.6339 21.5408 14.6339 21.61 14.619L29.848 9.06501C29.842 8.79546 29.7434 8.5362 29.5687 8.33078C29.3941 8.12537 29.1541 7.98632 28.889 7.93701H19.484Z" fill="black"/>
<path d="M19.484 15.457L21.231 16.657C21.3127 16.707 21.4067 16.7335 21.5025 16.7335C21.5983 16.7335 21.6923 16.707 21.774 16.657C21.474 16.838 29.847 11.279 29.847 11.279V21.345C29.8688 21.549 29.8458 21.7552 29.7796 21.9494C29.7134 22.1435 29.6055 22.3209 29.4636 22.469C29.3217 22.6171 29.1491 22.7324 28.958 22.8069C28.7668 22.8813 28.5617 22.9131 28.357 22.9H19.483L19.484 15.457ZM10.44 12.932C10.1497 12.9307 9.86454 13.0079 9.61457 13.1554C9.3646 13.3029 9.15916 13.5153 9.01999 13.77C8.64005 14.4453 8.45778 15.214 8.49399 15.988C8.45451 16.7604 8.63704 17.528 9.01999 18.2C9.1585 18.4443 9.35886 18.6478 9.60095 18.7901C9.84304 18.9325 10.1183 19.0086 10.3991 19.0108C10.68 19.013 10.9564 18.9413 11.2007 18.8028C11.445 18.6644 11.6486 18.4641 11.791 18.222C12.1705 17.5534 12.3493 16.7896 12.306 16.022C12.3493 15.2304 12.1765 14.4419 11.806 13.741C11.6732 13.4948 11.4759 13.2894 11.2353 13.1469C10.9946 13.0044 10.7197 12.9301 10.44 12.932Z" fill="black"/>
<path d="M2.15302 5.155V26.582L18.453 30V2L2.15302 5.155ZM13.061 19.491C12.7562 19.9209 12.3507 20.2697 11.8801 20.5069C11.4095 20.7442 10.8879 20.8626 10.361 20.852C9.84736 20.8611 9.3391 20.7461 8.87947 20.5166C8.41983 20.2871 8.02241 19.95 7.72101 19.534C7.00627 18.536 6.6487 17.3262 6.70601 16.1C6.64536 14.8137 7.00939 13.5431 7.74201 12.484C8.05097 12.0461 8.46281 11.6909 8.94129 11.4496C9.41978 11.2082 9.95024 11.0882 10.486 11.1C10.9959 11.0901 11.5004 11.2054 11.9554 11.4357C12.4104 11.666 12.8021 12.0043 13.096 12.421C13.8036 13.4407 14.1551 14.6653 14.096 15.905C14.1586 17.1821 13.7945 18.4437 13.061 19.491Z" fill="black"/>
</svg>
